<svg width="1531" height="1902" xmlns="http://www.w3.org/2000/svg" xmlns:xlink="http://www.w3.org/1999/xlink" xml:space="preserve" overflow="hidden"><g transform="translate(-458 -252)"><g><path d="M462 283.834C462 268.462 474.462 256 489.834 256L925.166 256C940.538 256 953 268.462 953 283.834L953 395.166C953 410.538 940.538 423 925.166 423L489.834 423C474.462 423 462 410.538 462 395.166Z" fill="#203864" fill-rule="evenodd" fill-opacity="1"/><path d="M980 283.834C980 268.462 992.462 256 1007.83 256L1443.17 256C1458.54 256 1471 268.462 1471 283.834L1471 395.166C1471 410.538 1458.54 423 1443.17 423L1007.83 423C992.462 423 980 410.538 980 395.166Z" fill="#203864" fill-rule="evenodd" fill-opacity="1"/><path d="M1498 283.834C1498 268.462 1510.46 256 1525.83 256L1961.17 256C1976.54 256 1989 268.462 1989 283.834L1989 395.166C1989 410.538 1976.54 423 1961.17 423L1525.83 423C1510.46 423 1498 410.538 1498 395.166Z" fill="#203864" fill-rule="evenodd" fill-opacity="1"/><path d="M462 469.001C462 453.536 474.536 441 490.001 441L924.999 441C940.464 441 953 453.536 953 469.001L953 581C953 596.464 940.464 609 924.999 609L490.001 609C474.536 609 462 596.464 462 581Z" fill="#203864" fill-rule="evenodd" fill-opacity="0.588235"/><path d="M980 469.001C980 453.536 992.536 441 1008 441L1443 441C1458.46 441 1471 453.536 1471 469.001L1471 581C1471 596.464 1458.46 609 1443 609L1008 609C992.536 609 980 596.464 980 581Z" fill="#203864" fill-rule="evenodd" fill-opacity="0.588235"/><path d="M1498 469.001C1498 453.536 1510.54 441 1526 441L1961 441C1976.46 441 1989 453.536 1989 469.001L1989 581C1989 596.464 1976.46 609 1961 609L1526 609C1510.54 609 1498 596.464 1498 581Z" fill="#203864" fill-rule="evenodd" fill-opacity="0.588235"/><path d="M462 655.001C462 639.536 474.536 627 490.001 627L924.999 627C940.464 627 953 639.536 953 655.001L953 767C953 782.464 940.464 795 924.999 795L490.001 795C474.536 795 462 782.464 462 767Z" fill="#203864" fill-rule="evenodd" fill-opacity="0.588235"/><path d="M980 655.001C980 639.536 992.536 627 1008 627L1443 627C1458.46 627 1471 639.536 1471 655.001L1471 767C1471 782.464 1458.46 795 1443 795L1008 795C992.536 795 980 782.464 980 767Z" fill="#203864" fill-rule="evenodd" fill-opacity="0.588235"/><path d="M1498 655.001C1498 639.536 1510.54 627 1526 627L1961 627C1976.46 627 1989 639.536 1989 655.001L1989 767C1989 782.464 1976.46 795 1961 795L1526 795C1510.54 795 1498 782.464 1498 767Z" fill="#203864" fill-rule="evenodd" fill-opacity="0.588235"/><path d="M462 840.834C462 825.462 474.462 813 489.834 813L925.166 813C940.538 813 953 825.462 953 840.834L953 952.166C953 967.538 940.538 980 925.166 980L489.834 980C474.462 980 462 967.538 462 952.166Z" fill="#203864" fill-rule="evenodd" fill-opacity="0.588235"/><path d="M980 840.834C980 825.462 992.462 813 1007.83 813L1443.17 813C1458.54 813 1471 825.462 1471 840.834L1471 952.166C1471 967.538 1458.54 980 1443.17 980L1007.83 980C992.462 980 980 967.538 980 952.166Z" fill="#203864" fill-rule="evenodd" fill-opacity="0.588235"/><path d="M1498 840.834C1498 825.462 1510.46 813 1525.83 813L1961.17 813C1976.54 813 1989 825.462 1989 840.834L1989 952.166C1989 967.538 1976.54 980 1961.17 980L1525.83 980C1510.46 980 1498 967.538 1498 952.166Z" fill="#203864" fill-rule="evenodd" fill-opacity="0.588235"/><path d="M462 1028C462 1012.54 474.536 1000 490.001 1000L924.999 1000C940.464 1000 953 1012.54 953 1028L953 1140C953 1155.46 940.464 1168 924.999 1168L490.001 1168C474.536 1168 462 1155.46 462 1140Z" fill="#203864" fill-rule="evenodd" fill-opacity="0.588235"/><path d="M980 1028C980 1012.54 992.536 1000 1008 1000L1443 1000C1458.46 1000 1471 1012.54 1471 1028L1471 1140C1471 1155.46 1458.46 1168 1443 1168L1008 1168C992.536 1168 980 1155.46 980 1140Z" fill="#203864" fill-rule="evenodd" fill-opacity="0.588235"/><path d="M1498 1028C1498 1012.54 1510.54 1000 1526 1000L1961 1000C1976.46 1000 1989 1012.54 1989 1028L1989 1140C1989 1155.46 1976.46 1168 1961 1168L1526 1168C1510.54 1168 1498 1155.46 1498 1140Z" fill="#203864" fill-rule="evenodd" fill-opacity="0.588235"/><path d="M462 1221.83C462 1206.46 474.462 1194 489.834 1194L925.166 1194C940.538 1194 953 1206.46 953 1221.83L953 1333.17C953 1348.54 940.538 1361 925.166 1361L489.834 1361C474.462 1361 462 1348.54 462 1333.17Z" fill="#203864" fill-rule="evenodd" fill-opacity="0.588235"/><path d="M980 1221.83C980 1206.46 992.462 1194 1007.83 1194L1443.17 1194C1458.54 1194 1471 1206.46 1471 1221.83L1471 1333.17C1471 1348.54 1458.54 1361 1443.17 1361L1007.83 1361C992.462 1361 980 1348.54 980 1333.17Z" fill="#203864" fill-rule="evenodd" fill-opacity="0.588235"/><path d="M1498 1221.83C1498 1206.46 1510.46 1194 1525.83 1194L1961.17 1194C1976.54 1194 1989 1206.46 1989 1221.83L1989 1333.17C1989 1348.54 1976.54 1361 1961.17 1361L1525.83 1361C1510.46 1361 1498 1348.54 1498 1333.17Z" fill="#203864" fill-rule="evenodd" fill-opacity="0.588235"/><path d="M1283.25 1430 1283.25 1613.5 1341 1613.5 1225.5 1729 1110 1613.5 1167.75 1613.5 1167.75 1430Z" fill="#000000" fill-rule="evenodd" fill-opacity="1"/><path d="M462 1826C462 1810.54 474.536 1798 490.001 1798L924.999 1798C940.464 1798 953 1810.54 953 1826L953 1938C953 1953.46 940.464 1966 924.999 1966L490.001 1966C474.536 1966 462 1953.46 462 1938Z" fill="#203864" fill-rule="evenodd" fill-opacity="1"/><path d="M980 1826C980 1810.54 992.536 1798 1008 1798L1443 1798C1458.46 1798 1471 1810.54 1471 1826L1471 1938C1471 1953.46 1458.46 1966 1443 1966L1008 1966C992.536 1966 980 1953.46 980 1938Z" fill="#203864" fill-rule="evenodd" fill-opacity="1"/><path d="M1498 1826C1498 1810.54 1510.54 1798 1526 1798L1961 1798C1976.46 1798 1989 1810.54 1989 1826L1989 1938C1989 1953.46 1976.46 1966 1961 1966L1526 1966C1510.54 1966 1498 1953.46 1498 1938Z" fill="#203864" fill-rule="evenodd" fill-opacity="1"/><path d="M462 2012C462 1996.54 474.536 1984 490.001 1984L924.999 1984C940.464 1984 953 1996.54 953 2012L953 2124C953 2139.46 940.464 2152 924.999 2152L490.001 2152C474.536 2152 462 2139.46 462 2124Z" fill="#CF2CB9" fill-rule="evenodd" fill-opacity="0.588235"/><path d="M980 2012C980 1996.54 992.536 1984 1008 1984L1443 1984C1458.46 1984 1471 1996.54 1471 2012L1471 2124C1471 2139.46 1458.46 2152 1443 2152L1008 2152C992.536 2152 980 2139.46 980 2124Z" fill="#CF2CB9" fill-rule="evenodd" fill-opacity="0.588235"/><path d="M1498 2012C1498 1996.54 1510.54 1984 1526 1984L1961 1984C1976.46 1984 1989 1996.54 1989 2012L1989 2124C1989 2139.46 1976.46 2152 1961 2152L1526 2152C1510.54 2152 1498 2139.46 1498 2124Z" fill="#CF2CB9" fill-rule="evenodd" fill-opacity="0.588235"/></g></g></svg>