<svg width="3066" height="1536" xmlns="http://www.w3.org/2000/svg" xmlns:xlink="http://www.w3.org/1999/xlink" xml:space="preserve" overflow="hidden"><g transform="translate(-495 -187)"><g><path d="M690 415.501C690 387.61 712.61 365 740.5 365L1562.5 365C1590.39 365 1613 387.61 1613 415.501L1613 617.499C1613 645.39 1590.39 668 1562.5 668L740.5 668C712.61 668 690 645.39 690 617.499Z" fill="#203864" fill-rule="evenodd" fill-opacity="1"/><text fill="#FFFFFF" fill-opacity="1" font-family="Helvetica,Helvetica_MSFontService,sans-serif" font-style="normal" font-variant="normal" font-weight="400" font-stretch="normal" font-size="83" text-anchor="start" direction="ltr" writing-mode="lr-tb" unicode-bidi="normal" text-decoration="none" transform="matrix(1 0 0 1 968.849 543)">Variable 1</text><path d="M1663 415.501C1663 387.61 1685.61 365 1713.5 365L2535.5 365C2563.39 365 2586 387.61 2586 415.501L2586 617.499C2586 645.39 2563.39 668 2535.5 668L1713.5 668C1685.61 668 1663 645.39 1663 617.499Z" fill="#203864" fill-rule="evenodd" fill-opacity="1"/><text fill="#FFFFFF" fill-opacity="1" font-family="Helvetica,Helvetica_MSFontService,sans-serif" font-style="normal" font-variant="normal" font-weight="400" font-stretch="normal" font-size="83" text-anchor="start" direction="ltr" writing-mode="lr-tb" unicode-bidi="normal" text-decoration="none" transform="matrix(1 0 0 1 1941.78 543)">Variable 2</text><path d="M2636 415.501C2636 387.61 2658.61 365 2686.5 365L3508.5 365C3536.39 365 3559 387.61 3559 415.501L3559 617.499C3559 645.39 3536.39 668 3508.5 668L2686.5 668C2658.61 668 2636 645.39 2636 617.499Z" fill="#203864" fill-rule="evenodd" fill-opacity="1"/><text fill="#FFFFFF" fill-opacity="1" font-family="Helvetica,Helvetica_MSFontService,sans-serif" font-style="normal" font-variant="normal" font-weight="400" font-stretch="normal" font-size="83" text-anchor="start" direction="ltr" writing-mode="lr-tb" unicode-bidi="normal" text-decoration="none" transform="matrix(1 0 0 1 2914.71 543)">Variable 3</text><path d="M690 750.668C690 722.685 712.685 700 740.668 700L1562.33 700C1590.31 700 1613 722.685 1613 750.668L1613 953.332C1613 981.315 1590.31 1004 1562.33 1004L740.668 1004C712.685 1004 690 981.315 690 953.332Z" fill="#203864" fill-rule="evenodd" fill-opacity="0.588235"/><path d="M1663 750.668C1663 722.685 1685.69 700 1713.67 700L2535.33 700C2563.32 700 2586 722.685 2586 750.668L2586 953.332C2586 981.315 2563.32 1004 2535.33 1004L1713.67 1004C1685.69 1004 1663 981.315 1663 953.332Z" fill="#203864" fill-rule="evenodd" fill-opacity="0.588235"/><path d="M2636 750.668C2636 722.685 2658.68 700 2686.67 700L3508.33 700C3536.31 700 3559 722.685 3559 750.668L3559 953.332C3559 981.315 3536.31 1004 3508.33 1004L2686.67 1004C2658.68 1004 2636 981.315 2636 953.332Z" fill="#203864" fill-rule="evenodd" fill-opacity="0.588235"/><path d="M690 1086.5C690 1058.61 712.61 1036 740.5 1036L1562.5 1036C1590.39 1036 1613 1058.61 1613 1086.5L1613 1288.5C1613 1316.39 1590.39 1339 1562.5 1339L740.5 1339C712.61 1339 690 1316.39 690 1288.5Z" fill="#203864" fill-rule="evenodd" fill-opacity="0.588235"/><path d="M1663 1086.5C1663 1058.61 1685.61 1036 1713.5 1036L2535.5 1036C2563.39 1036 2586 1058.61 2586 1086.5L2586 1288.5C2586 1316.39 2563.39 1339 2535.5 1339L1713.5 1339C1685.61 1339 1663 1316.39 1663 1288.5Z" fill="#203864" fill-rule="evenodd" fill-opacity="0.588235"/><path d="M2636 1086.5C2636 1058.61 2658.61 1036 2686.5 1036L3508.5 1036C3536.39 1036 3559 1058.61 3559 1086.5L3559 1288.5C3559 1316.39 3536.39 1339 3508.5 1339L2686.5 1339C2658.61 1339 2636 1316.39 2636 1288.5Z" fill="#203864" fill-rule="evenodd" fill-opacity="0.588235"/><path d="M690 1422.5C690 1394.61 712.61 1372 740.5 1372L1562.5 1372C1590.39 1372 1613 1394.61 1613 1422.5L1613 1624.5C1613 1652.39 1590.39 1675 1562.5 1675L740.5 1675C712.61 1675 690 1652.39 690 1624.5Z" fill="#203864" fill-rule="evenodd" fill-opacity="0.588235"/><path d="M1663 1422.5C1663 1394.61 1685.61 1372 1713.5 1372L2535.5 1372C2563.39 1372 2586 1394.61 2586 1422.5L2586 1624.5C2586 1652.39 2563.39 1675 2535.5 1675L1713.5 1675C1685.61 1675 1663 1652.39 1663 1624.5Z" fill="#203864" fill-rule="evenodd" fill-opacity="0.588235"/><path d="M2636 1422.5C2636 1394.61 2658.61 1372 2686.5 1372L3508.5 1372C3536.39 1372 3559 1394.61 3559 1422.5L3559 1624.5C3559 1652.39 3536.39 1675 3508.5 1675L2686.5 1675C2658.61 1675 2636 1652.39 2636 1624.5Z" fill="#203864" fill-rule="evenodd" fill-opacity="0.588235"/><text fill="#000000" fill-opacity="1" font-family="Helvetica,Helvetica_MSFontService,sans-serif" font-style="normal" font-variant="normal" font-weight="400" font-stretch="normal" font-size="83" text-anchor="start" direction="ltr" writing-mode="lr-tb" unicode-bidi="normal" text-decoration="none" transform="matrix(1 0 0 1 1645.01 292)">COLUMNS = VARIABLES </text><text fill="#000000" fill-opacity="1" font-family="Helvetica,Helvetica_MSFontService,sans-serif" font-style="normal" font-variant="normal" font-weight="400" font-stretch="normal" font-size="83" text-anchor="start" direction="ltr" writing-mode="lr-tb" unicode-bidi="normal" text-decoration="none" transform="matrix(-1.83697e-16 -1 1 -1.83697e-16 599.263 1498)">ROWS = OBSERVATIONS </text></g></g></svg>