<svg width="2269" height="2557" xmlns="http://www.w3.org/2000/svg" xmlns:xlink="http://www.w3.org/1999/xlink" xml:space="preserve" overflow="hidden"><g transform="translate(-1310 229)"><g><path d="M1650-37.333C1650-53.1653 1662.83-66 1678.67-66L2145.33-66C2161.17-66 2174-53.1653 2174-37.333L2174 77.3328C2174 93.1652 2161.17 106 2145.33 106L1678.67 106C1662.83 106 1650 93.1652 1650 77.3328Z" fill="#C00000" fill-rule="evenodd" fill-opacity="1"/><text fill="#FFFFFF" fill-opacity="1" font-family="Helvetica,Helvetica_MSFontService,sans-serif" font-style="normal" font-variant="normal" font-weight="400" font-stretch="normal" font-size="55" text-anchor="start" direction="ltr" writing-mode="lr-tb" unicode-bidi="normal" text-decoration="none" transform="matrix(1 0 0 1 1739.91 38)">Bill length mm</text><path d="M2202-37.333C2202-53.1653 2214.83-66 2230.67-66L2697.33-66C2713.17-66 2726-53.1653 2726-37.333L2726 77.3328C2726 93.1652 2713.17 106 2697.33 106L2230.67 106C2214.83 106 2202 93.1652 2202 77.3328Z" fill="#203864" fill-rule="evenodd" fill-opacity="1"/><text fill="#FFFFFF" fill-opacity="1" font-family="Helvetica,Helvetica_MSFontService,sans-serif" font-style="normal" font-variant="normal" font-weight="400" font-stretch="normal" font-size="55" text-anchor="start" direction="ltr" writing-mode="lr-tb" unicode-bidi="normal" text-decoration="none" transform="matrix(1 0 0 1 2416.83 38)">Sex</text><path d="M2754-37.333C2754-53.1653 2766.83-66 2782.67-66L3249.33-66C3265.17-66 3278-53.1653 3278-37.333L3278 77.3328C3278 93.1652 3265.17 106 3249.33 106L2782.67 106C2766.83 106 2754 93.1652 2754 77.3328Z" fill="#CF2CB9" fill-rule="evenodd" fill-opacity="1"/><text fill="#FFFFFF" fill-opacity="1" font-family="Helvetica,Helvetica_MSFontService,sans-serif" font-style="normal" font-variant="normal" font-weight="400" font-stretch="normal" font-size="55" text-anchor="start" direction="ltr" writing-mode="lr-tb" unicode-bidi="normal" text-decoration="none" transform="matrix(1 0 0 1 2960.78 38)">Year</text><path d="M1650 152.667C1650 136.835 1662.83 124 1678.67 124L2145.33 124C2161.17 124 2174 136.835 2174 152.667L2174 267.333C2174 283.165 2161.17 296 2145.33 296L1678.67 296C1662.83 296 1650 283.165 1650 267.333Z" fill="#C00000" fill-rule="evenodd" fill-opacity="0.588235"/><text fill="#FFFFFF" fill-opacity="1" font-family="Helvetica,Helvetica_MSFontService,sans-serif" font-style="normal" font-variant="normal" font-weight="400" font-stretch="normal" font-size="55" text-anchor="start" direction="ltr" writing-mode="lr-tb" unicode-bidi="normal" text-decoration="none" transform="matrix(1 0 0 1 1858.79 228)">39.1</text><path d="M2202 152.667C2202 136.835 2214.83 124 2230.67 124L2697.33 124C2713.17 124 2726 136.835 2726 152.667L2726 267.333C2726 283.165 2713.17 296 2697.33 296L2230.67 296C2214.83 296 2202 283.165 2202 267.333Z" fill="#203864" fill-rule="evenodd" fill-opacity="0.588235"/><text fill="#FFFFFF" fill-opacity="1" font-family="Helvetica,Helvetica_MSFontService,sans-serif" font-style="normal" font-variant="normal" font-weight="400" font-stretch="normal" font-size="55" text-anchor="start" direction="ltr" writing-mode="lr-tb" unicode-bidi="normal" text-decoration="none" transform="matrix(1 0 0 1 2386.47 228)">“male”</text><path d="M2754 152.667C2754 136.835 2766.83 124 2782.67 124L3249.33 124C3265.17 124 3278 136.835 3278 152.667L3278 267.333C3278 283.165 3265.17 296 3249.33 296L2782.67 296C2766.83 296 2754 283.165 2754 267.333Z" fill="#CF2CB9" fill-rule="evenodd" fill-opacity="0.588235"/><text fill="#FFFFFF" fill-opacity="1" font-family="Helvetica,Helvetica_MSFontService,sans-serif" font-style="normal" font-variant="normal" font-weight="400" font-stretch="normal" font-size="55" text-anchor="start" direction="ltr" writing-mode="lr-tb" unicode-bidi="normal" text-decoration="none" transform="matrix(1 0 0 1 2955.39 228)">2007</text><path d="M1650 343.667C1650 327.835 1662.83 315 1678.67 315L2145.33 315C2161.17 315 2174 327.835 2174 343.667L2174 458.333C2174 474.165 2161.17 487 2145.33 487L1678.67 487C1662.83 487 1650 474.165 1650 458.333Z" fill="#C00000" fill-rule="evenodd" fill-opacity="0.588235"/><text fill="#FFFFFF" fill-opacity="1" font-family="Helvetica,Helvetica_MSFontService,sans-serif" font-style="normal" font-variant="normal" font-weight="400" font-stretch="normal" font-size="55" text-anchor="start" direction="ltr" writing-mode="lr-tb" unicode-bidi="normal" text-decoration="none" transform="matrix(1 0 0 1 1858.79 419)">39.5</text><path d="M2202 343.667C2202 327.835 2214.83 315 2230.67 315L2697.33 315C2713.17 315 2726 327.835 2726 343.667L2726 458.333C2726 474.165 2713.17 487 2697.33 487L2230.67 487C2214.83 487 2202 474.165 2202 458.333Z" fill="#203864" fill-rule="evenodd" fill-opacity="0.588235"/><text fill="#FFFFFF" fill-opacity="1" font-family="Helvetica,Helvetica_MSFontService,sans-serif" font-style="normal" font-variant="normal" font-weight="400" font-stretch="normal" font-size="55" text-anchor="start" direction="ltr" writing-mode="lr-tb" unicode-bidi="normal" text-decoration="none" transform="matrix(1 0 0 1 2363.55 419)">“female”</text><path d="M2754 343.667C2754 327.835 2766.83 315 2782.67 315L3249.33 315C3265.17 315 3278 327.835 3278 343.667L3278 458.333C3278 474.165 3265.17 487 3249.33 487L2782.67 487C2766.83 487 2754 474.165 2754 458.333Z" fill="#CF2CB9" fill-rule="evenodd" fill-opacity="0.588235"/><text fill="#FFFFFF" fill-opacity="1" font-family="Helvetica,Helvetica_MSFontService,sans-serif" font-style="normal" font-variant="normal" font-weight="400" font-stretch="normal" font-size="55" text-anchor="start" direction="ltr" writing-mode="lr-tb" unicode-bidi="normal" text-decoration="none" transform="matrix(1 0 0 1 2955.39 419)">2007</text><path d="M1650 533.667C1650 517.835 1662.83 505 1678.67 505L2145.33 505C2161.17 505 2174 517.835 2174 533.667L2174 648.333C2174 664.165 2161.17 677 2145.33 677L1678.67 677C1662.83 677 1650 664.165 1650 648.333Z" fill="#C00000" fill-rule="evenodd" fill-opacity="0.588235"/><text fill="#FFFFFF" fill-opacity="1" font-family="Helvetica,Helvetica_MSFontService,sans-serif" font-style="normal" font-variant="normal" font-weight="400" font-stretch="normal" font-size="55" text-anchor="start" direction="ltr" writing-mode="lr-tb" unicode-bidi="normal" text-decoration="none" transform="matrix(1 0 0 1 1858.79 609)">40.3</text><path d="M2202 533.667C2202 517.835 2214.83 505 2230.67 505L2697.33 505C2713.17 505 2726 517.835 2726 533.667L2726 648.333C2726 664.165 2713.17 677 2697.33 677L2230.67 677C2214.83 677 2202 664.165 2202 648.333Z" fill="#203864" fill-rule="evenodd" fill-opacity="0.588235"/><text fill="#FFFFFF" fill-opacity="1" font-family="Helvetica,Helvetica_MSFontService,sans-serif" font-style="normal" font-variant="normal" font-weight="400" font-stretch="normal" font-size="55" text-anchor="start" direction="ltr" writing-mode="lr-tb" unicode-bidi="normal" text-decoration="none" transform="matrix(1 0 0 1 2363.55 609)">“female”</text><path d="M2754 533.667C2754 517.835 2766.83 505 2782.67 505L3249.33 505C3265.17 505 3278 517.835 3278 533.667L3278 648.333C3278 664.165 3265.17 677 3249.33 677L2782.67 677C2766.83 677 2754 664.165 2754 648.333Z" fill="#CF2CB9" fill-rule="evenodd" fill-opacity="0.588235"/><text fill="#FFFFFF" fill-opacity="1" font-family="Helvetica,Helvetica_MSFontService,sans-serif" font-style="normal" font-variant="normal" font-weight="400" font-stretch="normal" font-size="55" text-anchor="start" direction="ltr" writing-mode="lr-tb" unicode-bidi="normal" text-decoration="none" transform="matrix(1 0 0 1 2955.39 609)">2007</text><path d="M1487 1024.17C1487 1011.92 1496.92 1002 1509.17 1002L1871.83 1002C1884.08 1002 1894 1011.92 1894 1024.17L1894 1112.83C1894 1125.08 1884.08 1135 1871.83 1135L1509.17 1135C1496.92 1135 1487 1125.08 1487 1112.83Z" fill="#C00000" fill-rule="evenodd" fill-opacity="0.588235"/><text fill="#FFFFFF" fill-opacity="1" font-family="Helvetica,Helvetica_MSFontService,sans-serif" font-style="normal" font-variant="normal" font-weight="400" font-stretch="normal" font-size="55" text-anchor="start" direction="ltr" writing-mode="lr-tb" unicode-bidi="normal" text-decoration="none" transform="matrix(1 0 0 1 1637.46 1087)">39.1</text><path d="M1487 1172.17C1487 1159.92 1496.92 1150 1509.17 1150L1871.83 1150C1884.08 1150 1894 1159.92 1894 1172.17L1894 1260.83C1894 1273.08 1884.08 1283 1871.83 1283L1509.17 1283C1496.92 1283 1487 1273.08 1487 1260.83Z" fill="#203864" fill-rule="evenodd" fill-opacity="0.588235"/><text fill="#FFFFFF" fill-opacity="1" font-family="Helvetica,Helvetica_MSFontService,sans-serif" font-style="normal" font-variant="normal" font-weight="400" font-stretch="normal" font-size="55" text-anchor="start" direction="ltr" writing-mode="lr-tb" unicode-bidi="normal" text-decoration="none" transform="matrix(1 0 0 1 1613.11 1234)">“male”</text><path d="M1487 1319.33C1487 1307 1497 1297 1509.33 1297L1871.67 1297C1884 1297 1894 1307 1894 1319.33L1894 1408.67C1894 1421 1884 1431 1871.67 1431L1509.33 1431C1497 1431 1487 1421 1487 1408.67Z" fill="#CF2CB9" fill-rule="evenodd" fill-opacity="0.588235"/><text fill="#FFFFFF" fill-opacity="1" font-family="Helvetica,Helvetica_MSFontService,sans-serif" font-style="normal" font-variant="normal" font-weight="400" font-stretch="normal" font-size="55" text-anchor="start" direction="ltr" writing-mode="lr-tb" unicode-bidi="normal" text-decoration="none" transform="matrix(1 0 0 1 1630.01 1382)">2007</text><path d="M1487 1467.33C1487 1455 1497 1445 1509.33 1445L1871.67 1445C1884 1445 1894 1455 1894 1467.33L1894 1556.67C1894 1569 1884 1579 1871.67 1579L1509.33 1579C1497 1579 1487 1569 1487 1556.67Z" fill="#C00000" fill-rule="evenodd" fill-opacity="0.588235"/><text fill="#FFFFFF" fill-opacity="1" font-family="Helvetica,Helvetica_MSFontService,sans-serif" font-style="normal" font-variant="normal" font-weight="400" font-stretch="normal" font-size="55" text-anchor="start" direction="ltr" writing-mode="lr-tb" unicode-bidi="normal" text-decoration="none" transform="matrix(1 0 0 1 1637.46 1530)">39.5</text><path d="M1491 1617.17C1491 1604.92 1500.92 1595 1513.17 1595L1875.83 1595C1888.08 1595 1898 1604.92 1898 1617.17L1898 1705.83C1898 1718.08 1888.08 1728 1875.83 1728L1513.17 1728C1500.92 1728 1491 1718.08 1491 1705.83Z" fill="#203864" fill-rule="evenodd" fill-opacity="0.588235"/><text fill="#FFFFFF" fill-opacity="1" font-family="Helvetica,Helvetica_MSFontService,sans-serif" font-style="normal" font-variant="normal" font-weight="400" font-stretch="normal" font-size="55" text-anchor="start" direction="ltr" writing-mode="lr-tb" unicode-bidi="normal" text-decoration="none" transform="matrix(1 0 0 1 1593.97 1680)">“female”</text><path d="M1491 1765.33C1491 1753 1501 1743 1513.33 1743L1875.67 1743C1888 1743 1898 1753 1898 1765.33L1898 1854.67C1898 1867 1888 1877 1875.67 1877L1513.33 1877C1501 1877 1491 1867 1491 1854.67Z" fill="#CF2CB9" fill-rule="evenodd" fill-opacity="0.588235"/><text fill="#FFFFFF" fill-opacity="1" font-family="Helvetica,Helvetica_MSFontService,sans-serif" font-style="normal" font-variant="normal" font-weight="400" font-stretch="normal" font-size="55" text-anchor="start" direction="ltr" writing-mode="lr-tb" unicode-bidi="normal" text-decoration="none" transform="matrix(1 0 0 1 1633.79 1828)">2007</text><path d="M1487 1920.33C1487 1908 1497 1898 1509.33 1898L1871.67 1898C1884 1898 1894 1908 1894 1920.33L1894 2009.67C1894 2022 1884 2032 1871.67 2032L1509.33 2032C1497 2032 1487 2022 1487 2009.67Z" fill="#C00000" fill-rule="evenodd" fill-opacity="0.588235"/><text fill="#FFFFFF" fill-opacity="1" font-family="Helvetica,Helvetica_MSFontService,sans-serif" font-style="normal" font-variant="normal" font-weight="400" font-stretch="normal" font-size="55" text-anchor="start" direction="ltr" writing-mode="lr-tb" unicode-bidi="normal" text-decoration="none" transform="matrix(1 0 0 1 1637.46 1983)">40.3</text><path d="M1491 2066.33C1491 2054 1501 2044 1513.33 2044L1875.67 2044C1888 2044 1898 2054 1898 2066.33L1898 2155.67C1898 2168 1888 2178 1875.67 2178L1513.33 2178C1501 2178 1491 2168 1491 2155.67Z" fill="#203864" fill-rule="evenodd" fill-opacity="0.588235"/><text fill="#FFFFFF" fill-opacity="1" font-family="Helvetica,Helvetica_MSFontService,sans-serif" font-style="normal" font-variant="normal" font-weight="400" font-stretch="normal" font-size="55" text-anchor="start" direction="ltr" writing-mode="lr-tb" unicode-bidi="normal" text-decoration="none" transform="matrix(1 0 0 1 1593.97 2129)">“female”</text><path d="M1491 2214.33C1491 2202 1501 2192 1513.33 2192L1875.67 2192C1888 2192 1898 2202 1898 2214.33L1898 2303.67C1898 2316 1888 2326 1875.67 2326L1513.33 2326C1501 2326 1491 2316 1491 2303.67Z" fill="#CF2CB9" fill-rule="evenodd" fill-opacity="0.588235"/><text fill="#FFFFFF" fill-opacity="1" font-family="Helvetica,Helvetica_MSFontService,sans-serif" font-style="normal" font-variant="normal" font-weight="400" font-stretch="normal" font-size="55" text-anchor="start" direction="ltr" writing-mode="lr-tb" unicode-bidi="normal" text-decoration="none" transform="matrix(1 0 0 1 1633.79 2277)">2007</text><g><g><g><path d="M2167.92 1560.92 2222.46 1560.92 2222.46 1592.08 2167.92 1592.08Z" fill="#000000" fill-rule="nonzero" fill-opacity="1"/><path d="M2167.92 1498.58 2222.46 1498.58 2222.46 1529.75 2167.92 1529.75Z" fill="#000000" fill-rule="nonzero" fill-opacity="1"/><path d="M2167.92 1623.25 2222.46 1623.25 2222.46 1654.42 2167.92 1654.42Z" fill="#000000" fill-rule="nonzero" fill-opacity="1"/><path d="M2167.92 1810.25 2222.46 1810.25 2222.46 1841.42 2167.92 1841.42Z" fill="#000000" fill-rule="nonzero" fill-opacity="1"/><path d="M2167.92 1747.92 2222.46 1747.92 2222.46 1779.08 2167.92 1779.08Z" fill="#000000" fill-rule="nonzero" fill-opacity="1"/><path d="M2167.92 1685.58 2222.46 1685.58 2222.46 1716.75 2167.92 1716.75Z" fill="#000000" fill-rule="nonzero" fill-opacity="1"/><path d="M2705.54 1747.92 2760.08 1747.92 2760.08 1779.08 2705.54 1779.08Z" fill="#000000" fill-rule="nonzero" fill-opacity="1"/><path d="M2705.54 1810.25 2760.08 1810.25 2760.08 1841.42 2705.54 1841.42Z" fill="#000000" fill-rule="nonzero" fill-opacity="1"/><path d="M2705.54 1685.58 2760.08 1685.58 2760.08 1716.75 2705.54 1716.75Z" fill="#000000" fill-rule="nonzero" fill-opacity="1"/><path d="M2705.54 1498.58 2760.08 1498.58 2760.08 1529.75 2705.54 1529.75Z" fill="#000000" fill-rule="nonzero" fill-opacity="1"/><path d="M2705.54 1623.25 2760.08 1623.25 2760.08 1654.42 2705.54 1654.42Z" fill="#000000" fill-rule="nonzero" fill-opacity="1"/><path d="M2705.54 1560.92 2760.08 1560.92 2760.08 1592.08 2705.54 1592.08Z" fill="#000000" fill-rule="nonzero" fill-opacity="1"/><path d="M2479.58 1373.92 2510.75 1373.92 2510.75 1428.46 2479.58 1428.46Z" fill="#000000" fill-rule="nonzero" fill-opacity="1"/><path d="M2604.25 1373.92 2635.42 1373.92 2635.42 1428.46 2604.25 1428.46Z" fill="#000000" fill-rule="nonzero" fill-opacity="1"/><path d="M2541.92 1373.92 2573.08 1373.92 2573.08 1428.46 2541.92 1428.46Z" fill="#000000" fill-rule="nonzero" fill-opacity="1"/><path d="M2417.25 1373.92 2448.42 1373.92 2448.42 1428.46 2417.25 1428.46Z" fill="#000000" fill-rule="nonzero" fill-opacity="1"/><path d="M2292.58 1373.92 2323.75 1373.92 2323.75 1428.46 2292.58 1428.46Z" fill="#000000" fill-rule="nonzero" fill-opacity="1"/><path d="M2354.92 1373.92 2386.08 1373.92 2386.08 1428.46 2354.92 1428.46Z" fill="#000000" fill-rule="nonzero" fill-opacity="1"/><path d="M2354.92 1911.54 2386.08 1911.54 2386.08 1966.08 2354.92 1966.08Z" fill="#000000" fill-rule="nonzero" fill-opacity="1"/><path d="M2292.58 1911.54 2323.75 1911.54 2323.75 1966.08 2292.58 1966.08Z" fill="#000000" fill-rule="nonzero" fill-opacity="1"/><path d="M2417.25 1911.54 2448.42 1911.54 2448.42 1966.08 2417.25 1966.08Z" fill="#000000" fill-rule="nonzero" fill-opacity="1"/><path d="M2479.58 1911.54 2510.75 1911.54 2510.75 1966.08 2479.58 1966.08Z" fill="#000000" fill-rule="nonzero" fill-opacity="1"/><path d="M2541.92 1911.54 2573.08 1911.54 2573.08 1966.08 2541.92 1966.08Z" fill="#000000" fill-rule="nonzero" fill-opacity="1"/><path d="M2604.25 1911.54 2635.42 1911.54 2635.42 1966.08 2604.25 1966.08Z" fill="#000000" fill-rule="nonzero" fill-opacity="1"/><path d="M2362.71 1568.71 2565.29 1568.71 2565.29 1771.29 2362.71 1771.29Z" fill="#000000" fill-rule="nonzero" fill-opacity="1"/><path d="M2643.21 1459.62 2284.79 1459.62C2267.58 1459.62 2253.62 1473.58 2253.62 1490.79L2253.62 1849.21C2253.62 1866.42 2267.58 1880.37 2284.79 1880.37L2643.21 1880.37C2660.42 1880.37 2674.38 1866.42 2674.38 1849.21L2674.38 1490.79C2674.38 1473.58 2660.42 1459.62 2643.21 1459.62ZM2596.46 1802.46 2331.54 1802.46 2331.54 1537.54 2596.46 1537.54Z" fill="#000000" fill-rule="nonzero" fill-opacity="1"/></g></g></g><path d="M1935.5 1033.5C1979.13 1033.5 2014.5 1039.39 2014.5 1046.67L2014.5 1657.83C2014.5 1665.11 2049.87 1671 2093.5 1671 2049.87 1671 2014.5 1676.89 2014.5 1684.17L2014.5 2295.33C2014.5 2302.61 1979.13 2308.5 1935.5 2308.5" stroke="#000000" stroke-width="4.58333" stroke-linecap="butt" stroke-linejoin="miter" stroke-miterlimit="8" stroke-opacity="1" fill="none" fill-rule="evenodd"/><text fill="#000000" fill-opacity="1" font-family="Helvetica,Helvetica_MSFontService,sans-serif" font-style="normal" font-variant="normal" font-weight="400" font-stretch="normal" font-size="83" text-anchor="start" direction="ltr" writing-mode="lr-tb" unicode-bidi="normal" text-decoration="none" transform="matrix(-1.83697e-16 -1 1 -1.83697e-16 1412.84 2041)">Classical row format</text><text fill="#000000" fill-opacity="1" font-family="Helvetica,Helvetica_MSFontService,sans-serif" font-style="normal" font-variant="normal" font-weight="400" font-stretch="normal" font-size="83" text-anchor="start" direction="ltr" writing-mode="lr-tb" unicode-bidi="normal" text-decoration="none" transform="matrix(1 0 0 1 2257.85 -125)">DataFrame</text><path d="M2955.5 2308.5C2912.15 2308.5 2877 2302.64 2877 2295.42L2877 1684.08C2877 1676.86 2841.85 1671 2798.5 1671 2841.85 1671 2877 1665.14 2877 1657.92L2877 1046.58C2877 1039.36 2912.15 1033.5 2955.5 1033.5" stroke="#000000" stroke-width="4.58333" stroke-linecap="butt" stroke-linejoin="miter" stroke-miterlimit="8" stroke-opacity="1" fill="none" fill-rule="evenodd"/><path d="M2993 1024.17C2993 1011.92 3002.92 1002 3015.17 1002L3377.83 1002C3390.08 1002 3400 1011.92 3400 1024.17L3400 1112.83C3400 1125.08 3390.08 1135 3377.83 1135L3015.17 1135C3002.92 1135 2993 1125.08 2993 1112.83Z" fill="#C00000" fill-rule="evenodd" fill-opacity="0.588235"/><text fill="#FFFFFF" fill-opacity="1" font-family="Helvetica,Helvetica_MSFontService,sans-serif" font-style="normal" font-variant="normal" font-weight="400" font-stretch="normal" font-size="55" text-anchor="start" direction="ltr" writing-mode="lr-tb" unicode-bidi="normal" text-decoration="none" transform="matrix(1 0 0 1 3142.86 1086)">39.1</text><path d="M2993 1469.17C2993 1456.92 3002.92 1447 3015.17 1447L3377.83 1447C3390.08 1447 3400 1456.92 3400 1469.17L3400 1557.83C3400 1570.08 3390.08 1580 3377.83 1580L3015.17 1580C3002.92 1580 2993 1570.08 2993 1557.83Z" fill="#203864" fill-rule="evenodd" fill-opacity="0.588235"/><text fill="#FFFFFF" fill-opacity="1" font-family="Helvetica,Helvetica_MSFontService,sans-serif" font-style="normal" font-variant="normal" font-weight="400" font-stretch="normal" font-size="55" text-anchor="start" direction="ltr" writing-mode="lr-tb" unicode-bidi="normal" text-decoration="none" transform="matrix(1 0 0 1 3118.51 1532)">“male”</text><path d="M2993 1919.17C2993 1906.92 3002.92 1897 3015.17 1897L3377.83 1897C3390.08 1897 3400 1906.92 3400 1919.17L3400 2007.83C3400 2020.08 3390.08 2030 3377.83 2030L3015.17 2030C3002.92 2030 2993 2020.08 2993 2007.83Z" fill="#CF2CB9" fill-rule="evenodd" fill-opacity="0.588235"/><text fill="#FFFFFF" fill-opacity="1" font-family="Helvetica,Helvetica_MSFontService,sans-serif" font-style="normal" font-variant="normal" font-weight="400" font-stretch="normal" font-size="55" text-anchor="start" direction="ltr" writing-mode="lr-tb" unicode-bidi="normal" text-decoration="none" transform="matrix(1 0 0 1 3135.42 1981)">2007</text><path d="M2993 1172.17C2993 1159.92 3002.92 1150 3015.17 1150L3377.83 1150C3390.08 1150 3400 1159.92 3400 1172.17L3400 1260.83C3400 1273.08 3390.08 1283 3377.83 1283L3015.17 1283C3002.92 1283 2993 1273.08 2993 1260.83Z" fill="#C00000" fill-rule="evenodd" fill-opacity="0.588235"/><text fill="#FFFFFF" fill-opacity="1" font-family="Helvetica,Helvetica_MSFontService,sans-serif" font-style="normal" font-variant="normal" font-weight="400" font-stretch="normal" font-size="55" text-anchor="start" direction="ltr" writing-mode="lr-tb" unicode-bidi="normal" text-decoration="none" transform="matrix(1 0 0 1 3142.86 1234)">39.5</text><path d="M2993 1617.17C2993 1604.92 3002.92 1595 3015.17 1595L3377.83 1595C3390.08 1595 3400 1604.92 3400 1617.17L3400 1705.83C3400 1718.08 3390.08 1728 3377.83 1728L3015.17 1728C3002.92 1728 2993 1718.08 2993 1705.83Z" fill="#203864" fill-rule="evenodd" fill-opacity="0.588235"/><text fill="#FFFFFF" fill-opacity="1" font-family="Helvetica,Helvetica_MSFontService,sans-serif" font-style="normal" font-variant="normal" font-weight="400" font-stretch="normal" font-size="55" text-anchor="start" direction="ltr" writing-mode="lr-tb" unicode-bidi="normal" text-decoration="none" transform="matrix(1 0 0 1 3095.6 1679)">“female”</text><path d="M2993 2067.17C2993 2054.92 3002.92 2045 3015.17 2045L3377.83 2045C3390.08 2045 3400 2054.92 3400 2067.17L3400 2155.83C3400 2168.08 3390.08 2178 3377.83 2178L3015.17 2178C3002.92 2178 2993 2168.08 2993 2155.83Z" fill="#CF2CB9" fill-rule="evenodd" fill-opacity="0.588235"/><text fill="#FFFFFF" fill-opacity="1" font-family="Helvetica,Helvetica_MSFontService,sans-serif" font-style="normal" font-variant="normal" font-weight="400" font-stretch="normal" font-size="55" text-anchor="start" direction="ltr" writing-mode="lr-tb" unicode-bidi="normal" text-decoration="none" transform="matrix(1 0 0 1 3135.42 2129)">2007</text><path d="M2993 1319.33C2993 1307 3003 1297 3015.33 1297L3377.67 1297C3390 1297 3400 1307 3400 1319.33L3400 1408.67C3400 1421 3390 1431 3377.67 1431L3015.33 1431C3003 1431 2993 1421 2993 1408.67Z" fill="#C00000" fill-rule="evenodd" fill-opacity="0.588235"/><text fill="#FFFFFF" fill-opacity="1" font-family="Helvetica,Helvetica_MSFontService,sans-serif" font-style="normal" font-variant="normal" font-weight="400" font-stretch="normal" font-size="55" text-anchor="start" direction="ltr" writing-mode="lr-tb" unicode-bidi="normal" text-decoration="none" transform="matrix(1 0 0 1 3142.86 1382)">40.3</text><path d="M2993 1765.17C2993 1752.92 3002.92 1743 3015.17 1743L3377.83 1743C3390.08 1743 3400 1752.92 3400 1765.17L3400 1853.83C3400 1866.08 3390.08 1876 3377.83 1876L3015.17 1876C3002.92 1876 2993 1866.08 2993 1853.83Z" fill="#203864" fill-rule="evenodd" fill-opacity="0.588235"/><text fill="#FFFFFF" fill-opacity="1" font-family="Helvetica,Helvetica_MSFontService,sans-serif" font-style="normal" font-variant="normal" font-weight="400" font-stretch="normal" font-size="55" text-anchor="start" direction="ltr" writing-mode="lr-tb" unicode-bidi="normal" text-decoration="none" transform="matrix(1 0 0 1 3095.6 1827)">“female”</text><path d="M2993 2215.17C2993 2202.92 3002.92 2193 3015.17 2193L3377.83 2193C3390.08 2193 3400 2202.92 3400 2215.17L3400 2303.83C3400 2316.08 3390.08 2326 3377.83 2326L3015.17 2326C3002.92 2326 2993 2316.08 2993 2303.83Z" fill="#CF2CB9" fill-rule="evenodd" fill-opacity="0.588235"/><text fill="#FFFFFF" fill-opacity="1" font-family="Helvetica,Helvetica_MSFontService,sans-serif" font-style="normal" font-variant="normal" font-weight="400" font-stretch="normal" font-size="55" text-anchor="start" direction="ltr" writing-mode="lr-tb" unicode-bidi="normal" text-decoration="none" transform="matrix(1 0 0 1 3135.42 2277)">2007</text><text fill="#000000" fill-opacity="1" font-family="Helvetica,Helvetica_MSFontService,sans-serif" font-style="normal" font-variant="normal" font-weight="400" font-stretch="normal" font-size="83" text-anchor="start" direction="ltr" writing-mode="lr-tb" unicode-bidi="normal" text-decoration="none" transform="matrix(6.12323e-17 1 -1 6.12323e-17 3477.59 1325)">Columnar format</text><path d="M1.99435-4.75494 751.58 309.642 747.591 319.152-1.99435 4.75494ZM750.812 298.137 773.359 324.368 738.846 326.667Z" fill="#000000" fill-rule="nonzero" fill-opacity="1" transform="matrix(-1 0 0 1 2464.36 677)"/><path d="M2466.09 672.286 3174.57 986.21 3170.39 995.638 2461.91 681.714ZM3174.03 974.692 3196.05 1001.37 3161.5 1002.98Z" fill="#000000" fill-rule="nonzero" fill-opacity="1"/><path d="M2431 677.5C2431 658.998 2445.77 644 2464 644 2482.23 644 2497 658.998 2497 677.5 2497 696.001 2482.23 711 2464 711 2445.77 711 2431 696.001 2431 677.5Z" fill="#000000" fill-rule="evenodd" fill-opacity="1"/></g></g></svg>