<svg width="3855" height="921" xmlns="http://www.w3.org/2000/svg" xmlns:xlink="http://www.w3.org/1999/xlink" xml:space="preserve" overflow="hidden"><g transform="translate(-444 -183)"><g><path d="M449 221C449 205.536 461.536 193 477 193L912 193C927.464 193 940 205.536 940 221L940 332.999C940 348.464 927.464 361 912 361L477 361C461.536 361 449 348.464 449 332.999Z" fill="#203864" fill-rule="evenodd" fill-opacity="1"/><path d="M966 221C966 205.536 978.536 193 994 193L1429 193C1444.46 193 1457 205.536 1457 221L1457 332.999C1457 348.464 1444.46 361 1429 361L994 361C978.536 361 966 348.464 966 332.999Z" fill="#203864" fill-rule="evenodd" fill-opacity="1"/><path d="M1484 221C1484 205.536 1496.54 193 1512 193L1947 193C1962.46 193 1975 205.536 1975 221L1975 332.999C1975 348.464 1962.46 361 1947 361L1512 361C1496.54 361 1484 348.464 1484 332.999Z" fill="#203864" fill-rule="evenodd" fill-opacity="1"/><path d="M449 407.001C449 391.536 461.536 379 477 379L912 379C927.464 379 940 391.536 940 407.001L940 519C940 534.464 927.464 547 912 547L477 547C461.536 547 449 534.464 449 519Z" fill="#CF2CB9" fill-rule="evenodd" fill-opacity="0.588235"/><path d="M966 407.001C966 391.536 978.536 379 994 379L1429 379C1444.46 379 1457 391.536 1457 407.001L1457 519C1457 534.464 1444.46 547 1429 547L994 547C978.536 547 966 534.464 966 519Z" fill="#CF2CB9" fill-rule="evenodd" fill-opacity="0.588235"/><path d="M1484 407.001C1484 391.536 1496.54 379 1512 379L1947 379C1962.46 379 1975 391.536 1975 407.001L1975 519C1975 534.464 1962.46 547 1947 547L1512 547C1496.54 547 1484 534.464 1484 519Z" fill="#CF2CB9" fill-rule="evenodd" fill-opacity="0.588235"/><path d="M449 592.001C449 576.536 461.536 564 477 564L912 564C927.464 564 940 576.536 940 592.001L940 704C940 719.464 927.464 732 912 732L477 732C461.536 732 449 719.464 449 704Z" fill="#203864" fill-rule="evenodd" fill-opacity="0.588235"/><text fill="#FFFFFF" fill-opacity="1" font-family="Helvetica,Helvetica_MSFontService,sans-serif" font-style="normal" font-variant="normal" font-weight="400" font-stretch="normal" font-size="83" text-anchor="start" direction="ltr" writing-mode="lr-tb" unicode-bidi="normal" text-decoration="none" transform="matrix(1 0 0 1 629.959 675)">null</text><path d="M966 592.001C966 576.536 978.536 564 994 564L1429 564C1444.46 564 1457 576.536 1457 592.001L1457 704C1457 719.464 1444.46 732 1429 732L994 732C978.536 732 966 719.464 966 704Z" fill="#203864" fill-rule="evenodd" fill-opacity="0.588235"/><path d="M1484 592.001C1484 576.536 1496.54 564 1512 564L1947 564C1962.46 564 1975 576.536 1975 592.001L1975 704C1975 719.464 1962.46 732 1947 732L1512 732C1496.54 732 1484 719.464 1484 704Z" fill="#203864" fill-rule="evenodd" fill-opacity="0.588235"/><path d="M449 778.001C449 762.536 461.536 750 477 750L912 750C927.464 750 940 762.536 940 778.001L940 890C940 905.464 927.464 918 912 918L477 918C461.536 918 449 905.464 449 890Z" fill="#203864" fill-rule="evenodd" fill-opacity="0.588235"/><text fill="#FFFFFF" fill-opacity="1" font-family="Helvetica,Helvetica_MSFontService,sans-serif" font-style="normal" font-variant="normal" font-weight="400" font-stretch="normal" font-size="83" text-anchor="start" direction="ltr" writing-mode="lr-tb" unicode-bidi="normal" text-decoration="none" transform="matrix(1 0 0 1 629.959 860)">null</text><path d="M966 778.001C966 762.536 978.536 750 994 750L1429 750C1444.46 750 1457 762.536 1457 778.001L1457 890C1457 905.464 1444.46 918 1429 918L994 918C978.536 918 966 905.464 966 890Z" fill="#203864" fill-rule="evenodd" fill-opacity="0.588235"/><text fill="#FFFFFF" fill-opacity="1" font-family="Helvetica,Helvetica_MSFontService,sans-serif" font-style="normal" font-variant="normal" font-weight="400" font-stretch="normal" font-size="83" text-anchor="start" direction="ltr" writing-mode="lr-tb" unicode-bidi="normal" text-decoration="none" transform="matrix(1 0 0 1 1147.64 860)">null</text><path d="M1484 778.001C1484 762.536 1496.54 750 1512 750L1947 750C1962.46 750 1975 762.536 1975 778.001L1975 890C1975 905.464 1962.46 918 1947 918L1512 918C1496.54 918 1484 905.464 1484 890Z" fill="#203864" fill-rule="evenodd" fill-opacity="0.588235"/><path d="M2772 212C2772 196.536 2784.54 184 2800 184L3235 184C3250.46 184 3263 196.536 3263 212L3263 323.999C3263 339.464 3250.46 352 3235 352L2800 352C2784.54 352 2772 339.464 2772 323.999Z" fill="#203864" fill-rule="evenodd" fill-opacity="1"/><path d="M3290 212C3290 196.536 3302.54 184 3318 184L3753 184C3768.46 184 3781 196.536 3781 212L3781 323.999C3781 339.464 3768.46 352 3753 352L3318 352C3302.54 352 3290 339.464 3290 323.999Z" fill="#203864" fill-rule="evenodd" fill-opacity="1"/><path d="M3807 212C3807 196.536 3819.54 184 3835 184L4270 184C4285.46 184 4298 196.536 4298 212L4298 323.999C4298 339.464 4285.46 352 4270 352L3835 352C3819.54 352 3807 339.464 3807 323.999Z" fill="#203864" fill-rule="evenodd" fill-opacity="1"/><path d="M2772 398C2772 382.536 2784.54 370 2800 370L3235 370C3250.46 370 3263 382.536 3263 398L3263 509.999C3263 525.464 3250.46 538 3235 538L2800 538C2784.54 538 2772 525.464 2772 509.999Z" fill="#CF2CB9" fill-rule="evenodd" fill-opacity="0.588235"/><path d="M3290 398C3290 382.536 3302.54 370 3318 370L3753 370C3768.46 370 3781 382.536 3781 398L3781 509.999C3781 525.464 3768.46 538 3753 538L3318 538C3302.54 538 3290 525.464 3290 509.999Z" fill="#CF2CB9" fill-rule="evenodd" fill-opacity="0.588235"/><path d="M3807 398C3807 382.536 3819.54 370 3835 370L4270 370C4285.46 370 4298 382.536 4298 398L4298 509.999C4298 525.464 4285.46 538 4270 538L3835 538C3819.54 538 3807 525.464 3807 509.999Z" fill="#CF2CB9" fill-rule="evenodd" fill-opacity="0.588235"/><path d="M2772 583.834C2772 568.462 2784.46 556 2799.83 556L3235.17 556C3250.54 556 3263 568.462 3263 583.834L3263 695.166C3263 710.538 3250.54 723 3235.17 723L2799.83 723C2784.46 723 2772 710.538 2772 695.166Z" fill="#CF2CB9" fill-rule="evenodd" fill-opacity="0.588235"/><path d="M3290 583.834C3290 568.462 3302.46 556 3317.83 556L3753.17 556C3768.54 556 3781 568.462 3781 583.834L3781 695.166C3781 710.538 3768.54 723 3753.17 723L3317.83 723C3302.46 723 3290 710.538 3290 695.166Z" fill="#CF2CB9" fill-rule="evenodd" fill-opacity="0.588235"/><path d="M3807 583.834C3807 568.462 3819.46 556 3834.83 556L4270.17 556C4285.54 556 4298 568.462 4298 583.834L4298 695.166C4298 710.538 4285.54 723 4270.17 723L3834.83 723C3819.46 723 3807 710.538 3807 695.166Z" fill="#CF2CB9" fill-rule="evenodd" fill-opacity="0.588235"/><path d="M2236 468.75 2419.5 468.75 2419.5 411 2535 526.5 2419.5 642 2419.5 584.25 2236 584.25Z" fill="#000000" fill-rule="evenodd" fill-opacity="1"/><path d="M449 963.834C449 948.462 461.462 936 476.834 936L912.166 936C927.538 936 940 948.462 940 963.834L940 1075.17C940 1090.54 927.538 1103 912.166 1103L476.834 1103C461.462 1103 449 1090.54 449 1075.17Z" fill="#CF2CB9" fill-rule="evenodd" fill-opacity="0.588235"/><path d="M966 963.834C966 948.462 978.462 936 993.834 936L1429.17 936C1444.54 936 1457 948.462 1457 963.834L1457 1075.17C1457 1090.54 1444.54 1103 1429.17 1103L993.834 1103C978.462 1103 966 1090.54 966 1075.17Z" fill="#CF2CB9" fill-rule="evenodd" fill-opacity="0.588235"/><path d="M1484 963.834C1484 948.462 1496.46 936 1511.83 936L1947.17 936C1962.54 936 1975 948.462 1975 963.834L1975 1075.17C1975 1090.54 1962.54 1103 1947.17 1103L1511.83 1103C1496.46 1103 1484 1090.54 1484 1075.17Z" fill="#CF2CB9" fill-rule="evenodd" fill-opacity="0.588235"/></g></g></svg>