<svg width="3882" height="729" xmlns="http://www.w3.org/2000/svg" xmlns:xlink="http://www.w3.org/1999/xlink" xml:space="preserve" overflow="hidden"><g transform="translate(-444 -192)"><g><path d="M449 221C449 205.536 461.536 193 477 193L912 193C927.464 193 940 205.536 940 221L940 332.999C940 348.464 927.464 361 912 361L477 361C461.536 361 449 348.464 449 332.999Z" fill="#203864" fill-rule="evenodd" fill-opacity="1"/><path d="M966 221C966 205.536 978.536 193 994 193L1429 193C1444.46 193 1457 205.536 1457 221L1457 332.999C1457 348.464 1444.46 361 1429 361L994 361C978.536 361 966 348.464 966 332.999Z" fill="#203864" fill-rule="evenodd" fill-opacity="1"/><path d="M1484 221C1484 205.536 1496.54 193 1512 193L1947 193C1962.46 193 1975 205.536 1975 221L1975 332.999C1975 348.464 1962.46 361 1947 361L1512 361C1496.54 361 1484 348.464 1484 332.999Z" fill="#203864" fill-rule="evenodd" fill-opacity="1"/><path d="M449 407.001C449 391.536 461.536 379 477 379L912 379C927.464 379 940 391.536 940 407.001L940 519C940 534.464 927.464 547 912 547L477 547C461.536 547 449 534.464 449 519Z" fill="#CF2CB9" fill-rule="evenodd" fill-opacity="0.588235"/><path d="M966 407.001C966 391.536 978.536 379 994 379L1429 379C1444.46 379 1457 391.536 1457 407.001L1457 519C1457 534.464 1444.46 547 1429 547L994 547C978.536 547 966 534.464 966 519Z" fill="#CF2CB9" fill-rule="evenodd" fill-opacity="0.588235"/><path d="M1484 407.001C1484 391.536 1496.54 379 1512 379L1947 379C1962.46 379 1975 391.536 1975 407.001L1975 519C1975 534.464 1962.46 547 1947 547L1512 547C1496.54 547 1484 534.464 1484 519Z" fill="#CF2CB9" fill-rule="evenodd" fill-opacity="0.588235"/><path d="M449 592.001C449 576.536 461.536 564 477 564L912 564C927.464 564 940 576.536 940 592.001L940 704C940 719.464 927.464 732 912 732L477 732C461.536 732 449 719.464 449 704Z" fill="#203864" fill-rule="evenodd" fill-opacity="0.588235"/><path d="M966 592.001C966 576.536 978.536 564 994 564L1429 564C1444.46 564 1457 576.536 1457 592.001L1457 704C1457 719.464 1444.46 732 1429 732L994 732C978.536 732 966 719.464 966 704Z" fill="#203864" fill-rule="evenodd" fill-opacity="0.588235"/><path d="M1484 592.001C1484 576.536 1496.54 564 1512 564L1947 564C1962.46 564 1975 576.536 1975 592.001L1975 704C1975 719.464 1962.46 732 1947 732L1512 732C1496.54 732 1484 719.464 1484 704Z" fill="#203864" fill-rule="evenodd" fill-opacity="0.588235"/><path d="M449 778.001C449 762.536 461.536 750 477 750L912 750C927.464 750 940 762.536 940 778.001L940 890C940 905.464 927.464 918 912 918L477 918C461.536 918 449 905.464 449 890Z" fill="#CF2CB9" fill-rule="evenodd" fill-opacity="0.588235"/><path d="M966 778.001C966 762.536 978.536 750 994 750L1429 750C1444.46 750 1457 762.536 1457 778.001L1457 890C1457 905.464 1444.46 918 1429 918L994 918C978.536 918 966 905.464 966 890Z" fill="#CF2CB9" fill-rule="evenodd" fill-opacity="0.588235"/><path d="M1484 778.001C1484 762.536 1496.54 750 1512 750L1947 750C1962.46 750 1975 762.536 1975 778.001L1975 890C1975 905.464 1962.46 918 1947 918L1512 918C1496.54 918 1484 905.464 1484 890Z" fill="#CF2CB9" fill-rule="evenodd" fill-opacity="0.588235"/><path d="M2796 285.001C2796 269.536 2808.54 257 2824 257L3259 257C3274.46 257 3287 269.536 3287 285.001L3287 397C3287 412.464 3274.46 425 3259 425L2824 425C2808.54 425 2796 412.464 2796 397Z" fill="#203864" fill-rule="evenodd" fill-opacity="1"/><path d="M3314 285.001C3314 269.536 3326.54 257 3342 257L3777 257C3792.46 257 3805 269.536 3805 285.001L3805 397C3805 412.464 3792.46 425 3777 425L3342 425C3326.54 425 3314 412.464 3314 397Z" fill="#203864" fill-rule="evenodd" fill-opacity="1"/><path d="M3831 285.001C3831 269.536 3843.54 257 3859 257L4295 257C4310.46 257 4323 269.536 4323 285.001L4323 396.999C4323 412.464 4310.46 425 4295 425L3859 425C3843.54 425 3831 412.464 3831 396.999Z" fill="#203864" fill-rule="evenodd" fill-opacity="1"/><path d="M2796 470.834C2796 455.462 2808.46 443 2823.83 443L3259.17 443C3274.54 443 3287 455.462 3287 470.834L3287 582.166C3287 597.538 3274.54 610 3259.17 610L2823.83 610C2808.46 610 2796 597.538 2796 582.166Z" fill="#CF2CB9" fill-rule="evenodd" fill-opacity="0.588235"/><path d="M3314 470.834C3314 455.462 3326.46 443 3341.83 443L3777.17 443C3792.54 443 3805 455.462 3805 470.834L3805 582.166C3805 597.538 3792.54 610 3777.17 610L3341.83 610C3326.46 610 3314 597.538 3314 582.166Z" fill="#CF2CB9" fill-rule="evenodd" fill-opacity="0.588235"/><path d="M3831 470.834C3831 455.462 3843.46 443 3858.83 443L4295.17 443C4310.54 443 4323 455.462 4323 470.834L4323 582.166C4323 597.539 4310.54 610 4295.17 610L3858.83 610C3843.46 610 3831 597.539 3831 582.166Z" fill="#CF2CB9" fill-rule="evenodd" fill-opacity="0.588235"/><path d="M2796 656.001C2796 640.536 2808.54 628 2824 628L3259 628C3274.46 628 3287 640.536 3287 656.001L3287 768C3287 783.464 3274.46 796 3259 796L2824 796C2808.54 796 2796 783.464 2796 768Z" fill="#CF2CB9" fill-rule="evenodd" fill-opacity="0.588235"/><path d="M3314 656.001C3314 640.536 3326.54 628 3342 628L3777 628C3792.46 628 3805 640.536 3805 656.001L3805 768C3805 783.464 3792.46 796 3777 796L3342 796C3326.54 796 3314 783.464 3314 768Z" fill="#CF2CB9" fill-rule="evenodd" fill-opacity="0.588235"/><path d="M3831 656.001C3831 640.536 3843.54 628 3859 628L4295 628C4310.46 628 4323 640.536 4323 656.001L4323 767.999C4323 783.463 4310.46 796 4295 796L3859 796C3843.54 796 3831 783.463 3831 767.999Z" fill="#CF2CB9" fill-rule="evenodd" fill-opacity="0.588235"/><path d="M2236 468.75 2419.5 468.75 2419.5 411 2535 526.5 2419.5 642 2419.5 584.25 2236 584.25Z" fill="#000000" fill-rule="evenodd" fill-opacity="1"/></g></g></svg>