<svg width="1531" height="2090" xmlns="http://www.w3.org/2000/svg" xmlns:xlink="http://www.w3.org/1999/xlink" xml:space="preserve" overflow="hidden"><g transform="translate(-513 -192)"><g><path d="M516 221.834C516 206.461 528.462 194 543.834 194L980.166 194C995.538 194 1008 206.461 1008 221.834L1008 333.166C1008 348.538 995.538 361 980.166 361L543.834 361C528.462 361 516 348.538 516 333.166Z" fill="#203864" fill-rule="evenodd" fill-opacity="1"/><path d="M1034 221.834C1034 206.462 1046.46 194 1061.83 194L1497.17 194C1512.54 194 1525 206.462 1525 221.834L1525 333.166C1525 348.538 1512.54 361 1497.17 361L1061.83 361C1046.46 361 1034 348.538 1034 333.166Z" fill="#203864" fill-rule="evenodd" fill-opacity="1"/><path d="M1552 221.834C1552 206.462 1564.46 194 1579.83 194L2015.17 194C2030.54 194 2043 206.462 2043 221.834L2043 333.166C2043 348.538 2030.54 361 2015.17 361L1579.83 361C1564.46 361 1552 348.538 1552 333.166Z" fill="#203864" fill-rule="evenodd" fill-opacity="1"/><path d="M516 407.001C516 391.536 528.536 379 544 379L979.999 379C995.464 379 1008 391.536 1008 407.001L1008 518.999C1008 534.464 995.464 547 979.999 547L544 547C528.536 547 516 534.464 516 518.999Z" fill="#FFC000" fill-rule="evenodd" fill-opacity="0.588235"/><path d="M1034 407.001C1034 391.536 1046.54 379 1062 379L1497 379C1512.46 379 1525 391.536 1525 407.001L1525 519C1525 534.464 1512.46 547 1497 547L1062 547C1046.54 547 1034 534.464 1034 519Z" fill="#FFC000" fill-rule="evenodd" fill-opacity="0.588235"/><path d="M1552 407.001C1552 391.536 1564.54 379 1580 379L2015 379C2030.46 379 2043 391.536 2043 407.001L2043 519C2043 534.464 2030.46 547 2015 547L1580 547C1564.54 547 1552 534.464 1552 519Z" fill="#FFC000" fill-rule="evenodd" fill-opacity="0.588235"/><path d="M516 593.001C516 577.536 528.536 565 544 565L979.999 565C995.464 565 1008 577.536 1008 593.001L1008 704.999C1008 720.464 995.464 733 979.999 733L544 733C528.536 733 516 720.464 516 704.999Z" fill="#FFC000" fill-rule="evenodd" fill-opacity="0.588235"/><path d="M1034 593.001C1034 577.536 1046.54 565 1062 565L1497 565C1512.46 565 1525 577.536 1525 593.001L1525 705C1525 720.464 1512.46 733 1497 733L1062 733C1046.54 733 1034 720.464 1034 705Z" fill="#FFC000" fill-rule="evenodd" fill-opacity="0.588235"/><path d="M1552 593.001C1552 577.536 1564.54 565 1580 565L2015 565C2030.46 565 2043 577.536 2043 593.001L2043 705C2043 720.464 2030.46 733 2015 733L1580 733C1564.54 733 1552 720.464 1552 705Z" fill="#FFC000" fill-rule="evenodd" fill-opacity="0.588235"/><path d="M516 778.834C516 763.462 528.462 751 543.834 751L980.166 751C995.538 751 1008 763.462 1008 778.834L1008 890.166C1008 905.539 995.538 918 980.166 918L543.834 918C528.462 918 516 905.539 516 890.166Z" fill="#CF2CB9" fill-rule="evenodd" fill-opacity="0.588235"/><path d="M1034 778.834C1034 763.462 1046.46 751 1061.83 751L1497.17 751C1512.54 751 1525 763.462 1525 778.834L1525 890.166C1525 905.538 1512.54 918 1497.17 918L1061.83 918C1046.46 918 1034 905.538 1034 890.166Z" fill="#CF2CB9" fill-rule="evenodd" fill-opacity="0.588235"/><path d="M1552 778.834C1552 763.462 1564.46 751 1579.83 751L2015.17 751C2030.54 751 2043 763.462 2043 778.834L2043 890.166C2043 905.538 2030.54 918 2015.17 918L1579.83 918C1564.46 918 1552 905.538 1552 890.166Z" fill="#CF2CB9" fill-rule="evenodd" fill-opacity="0.588235"/><path d="M516 966.001C516 950.536 528.536 938 544 938L979.999 938C995.464 938 1008 950.536 1008 966.001L1008 1078C1008 1093.46 995.464 1106 979.999 1106L544 1106C528.536 1106 516 1093.46 516 1078Z" fill="#CF2CB9" fill-rule="evenodd" fill-opacity="0.588235"/><path d="M1034 966.001C1034 950.536 1046.54 938 1062 938L1497 938C1512.46 938 1525 950.536 1525 966.001L1525 1078C1525 1093.46 1512.46 1106 1497 1106L1062 1106C1046.54 1106 1034 1093.46 1034 1078Z" fill="#CF2CB9" fill-rule="evenodd" fill-opacity="0.588235"/><path d="M1552 966.001C1552 950.536 1564.54 938 1580 938L2015 938C2030.46 938 2043 950.536 2043 966.001L2043 1078C2043 1093.46 2030.46 1106 2015 1106L1580 1106C1564.54 1106 1552 1093.46 1552 1078Z" fill="#CF2CB9" fill-rule="evenodd" fill-opacity="0.588235"/><path d="M516 1159.83C516 1144.46 528.462 1132 543.834 1132L980.166 1132C995.538 1132 1008 1144.46 1008 1159.83L1008 1271.17C1008 1286.54 995.538 1299 980.166 1299L543.834 1299C528.462 1299 516 1286.54 516 1271.17Z" fill="#FFC000" fill-rule="evenodd" fill-opacity="0.588235"/><path d="M1034 1159.83C1034 1144.46 1046.46 1132 1061.83 1132L1497.17 1132C1512.54 1132 1525 1144.46 1525 1159.83L1525 1271.17C1525 1286.54 1512.54 1299 1497.17 1299L1061.83 1299C1046.46 1299 1034 1286.54 1034 1271.17Z" fill="#FFC000" fill-rule="evenodd" fill-opacity="0.588235"/><path d="M1552 1159.83C1552 1144.46 1564.46 1132 1579.83 1132L2015.17 1132C2030.54 1132 2043 1144.46 2043 1159.83L2043 1271.17C2043 1286.54 2030.54 1299 2015.17 1299L1579.83 1299C1564.46 1299 1552 1286.54 1552 1271.17Z" fill="#FFC000" fill-rule="evenodd" fill-opacity="0.588235"/><path d="M1337.25 1368 1337.25 1551.5 1395 1551.5 1279.5 1667 1164 1551.5 1221.75 1551.5 1221.75 1368Z" fill="#000000" fill-rule="evenodd" fill-opacity="1"/><path d="M516 1764C516 1748.54 528.536 1736 544 1736L979.999 1736C995.464 1736 1008 1748.54 1008 1764L1008 1876C1008 1891.46 995.464 1904 979.999 1904L544 1904C528.536 1904 516 1891.46 516 1876Z" fill="#203864" fill-rule="evenodd" fill-opacity="1"/><path d="M1034 1764C1034 1748.54 1046.54 1736 1062 1736L1497 1736C1512.46 1736 1525 1748.54 1525 1764L1525 1876C1525 1891.46 1512.46 1904 1497 1904L1062 1904C1046.54 1904 1034 1891.46 1034 1876Z" fill="#203864" fill-rule="evenodd" fill-opacity="1"/><path d="M1552 1764C1552 1748.54 1564.54 1736 1580 1736L2015 1736C2030.46 1736 2043 1748.54 2043 1764L2043 1876C2043 1891.46 2030.46 1904 2015 1904L1580 1904C1564.54 1904 1552 1891.46 1552 1876Z" fill="#203864" fill-rule="evenodd" fill-opacity="1"/><path d="M516 1950C516 1934.54 528.536 1922 544 1922L979.999 1922C995.464 1922 1008 1934.54 1008 1950L1008 2062C1008 2077.46 995.464 2090 979.999 2090L544 2090C528.536 2090 516 2077.46 516 2062Z" fill="#FFC000" fill-rule="evenodd" fill-opacity="0.588235"/><path d="M1034 1950C1034 1934.54 1046.54 1922 1062 1922L1497 1922C1512.46 1922 1525 1934.54 1525 1950L1525 2062C1525 2077.46 1512.46 2090 1497 2090L1062 2090C1046.54 2090 1034 2077.46 1034 2062Z" fill="#FFC000" fill-rule="evenodd" fill-opacity="0.588235"/><path d="M1552 1950C1552 1934.54 1564.54 1922 1580 1922L2015 1922C2030.46 1922 2043 1934.54 2043 1950L2043 2062C2043 2077.46 2030.46 2090 2015 2090L1580 2090C1564.54 2090 1552 2077.46 1552 2062Z" fill="#FFC000" fill-rule="evenodd" fill-opacity="0.588235"/><path d="M516 2141.83C516 2126.46 528.462 2114 543.834 2114L980.166 2114C995.538 2114 1008 2126.46 1008 2141.83L1008 2253.17C1008 2268.54 995.538 2281 980.166 2281L543.834 2281C528.462 2281 516 2268.54 516 2253.17Z" fill="#CF2CB9" fill-rule="evenodd" fill-opacity="0.588235"/><path d="M1034 2141.83C1034 2126.46 1046.46 2114 1061.83 2114L1497.17 2114C1512.54 2114 1525 2126.46 1525 2141.83L1525 2253.17C1525 2268.54 1512.54 2281 1497.17 2281L1061.83 2281C1046.46 2281 1034 2268.54 1034 2253.17Z" fill="#CF2CB9" fill-rule="evenodd" fill-opacity="0.588235"/><path d="M1552 2141.83C1552 2126.46 1564.46 2114 1579.83 2114L2015.17 2114C2030.54 2114 2043 2126.46 2043 2141.83L2043 2253.17C2043 2268.54 2030.54 2281 2015.17 2281L1579.83 2281C1564.46 2281 1552 2268.54 1552 2253.17Z" fill="#CF2CB9" fill-rule="evenodd" fill-opacity="0.588235"/></g></g></svg>