<svg width="4382" height="738" xmlns="http://www.w3.org/2000/svg" xmlns:xlink="http://www.w3.org/1999/xlink" xml:space="preserve" overflow="hidden"><defs><clipPath id="clip0"><rect x="105" y="815" width="4382" height="738"/></clipPath><clipPath id="clip1"><rect x="105" y="815" width="4382" height="738"/></clipPath></defs><g clip-path="url(#clip0)" transform="translate(-105 -815)"><g clip-path="url(#clip1)"><path d="M109 856.834C109 841.462 121.462 829 136.834 829L572.166 829C587.538 829 600 841.462 600 856.834L600 968.166C600 983.538 587.538 996 572.166 996L136.834 996C121.462 996 109 983.538 109 968.166Z" fill="#203864" fill-rule="evenodd" fill-opacity="1"/><path d="M626 856.834C626 841.462 638.462 829 653.834 829L1090.17 829C1105.54 829 1118 841.462 1118 856.834L1118 968.166C1118 983.538 1105.54 996 1090.17 996L653.834 996C638.462 996 626 983.538 626 968.166Z" fill="#203864" fill-rule="evenodd" fill-opacity="1"/><path d="M1144 856.834C1144 841.462 1156.46 829 1171.83 829L1607.17 829C1622.54 829 1635 841.462 1635 856.834L1635 968.166C1635 983.538 1622.54 996 1607.17 996L1171.83 996C1156.46 996 1144 983.538 1144 968.166Z" fill="#203864" fill-rule="evenodd" fill-opacity="1"/><path d="M109 1042C109 1026.54 121.536 1014 137 1014L571.999 1014C587.464 1014 600 1026.54 600 1042L600 1154C600 1169.46 587.464 1182 571.999 1182L137 1182C121.536 1182 109 1169.46 109 1154Z" fill="#203864" fill-rule="evenodd" fill-opacity="0.588235"/><path d="M626 1042C626 1026.54 638.536 1014 654 1014L1090 1014C1105.46 1014 1118 1026.54 1118 1042L1118 1154C1118 1169.46 1105.46 1182 1090 1182L654 1182C638.536 1182 626 1169.46 626 1154Z" fill="#203864" fill-rule="evenodd" fill-opacity="0.588235"/><path d="M1144 1042C1144 1026.54 1156.54 1014 1172 1014L1607 1014C1622.46 1014 1635 1026.54 1635 1042L1635 1154C1635 1169.46 1622.46 1182 1607 1182L1172 1182C1156.54 1182 1144 1169.46 1144 1154Z" fill="#203864" fill-rule="evenodd" fill-opacity="0.588235"/><path d="M109 1228C109 1212.54 121.536 1200 137 1200L571.999 1200C587.464 1200 600 1212.54 600 1228L600 1340C600 1355.46 587.464 1368 571.999 1368L137 1368C121.536 1368 109 1355.46 109 1340Z" fill="#203864" fill-rule="evenodd" fill-opacity="0.588235"/><path d="M626 1228C626 1212.54 638.536 1200 654 1200L1090 1200C1105.46 1200 1118 1212.54 1118 1228L1118 1340C1118 1355.46 1105.46 1368 1090 1368L654 1368C638.536 1368 626 1355.46 626 1340Z" fill="#203864" fill-rule="evenodd" fill-opacity="0.588235"/><path d="M1144 1228C1144 1212.54 1156.54 1200 1172 1200L1607 1200C1622.46 1200 1635 1212.54 1635 1228L1635 1340C1635 1355.46 1622.46 1368 1607 1368L1172 1368C1156.54 1368 1144 1355.46 1144 1340Z" fill="#203864" fill-rule="evenodd" fill-opacity="0.588235"/><path d="M109 1413C109 1397.54 121.536 1385 137 1385L571.999 1385C587.464 1385 600 1397.54 600 1413L600 1525C600 1540.46 587.464 1553 571.999 1553L137 1553C121.536 1553 109 1540.46 109 1525Z" fill="#203864" fill-rule="evenodd" fill-opacity="0.588235"/><path d="M626 1413C626 1397.54 638.536 1385 654 1385L1090 1385C1105.46 1385 1118 1397.54 1118 1413L1118 1525C1118 1540.46 1105.46 1553 1090 1553L654 1553C638.536 1553 626 1540.46 626 1525Z" fill="#203864" fill-rule="evenodd" fill-opacity="0.588235"/><path d="M1144 1413C1144 1397.54 1156.54 1385 1172 1385L1607 1385C1622.46 1385 1635 1397.54 1635 1413L1635 1525C1635 1540.46 1622.46 1553 1607 1553L1172 1553C1156.54 1553 1144 1540.46 1144 1525Z" fill="#203864" fill-rule="evenodd" fill-opacity="0.588235"/><path d="M2432 847.834C2432 832.462 2444.46 820 2459.83 820L2895.17 820C2910.54 820 2923 832.462 2923 847.834L2923 959.166C2923 974.538 2910.54 987 2895.17 987L2459.83 987C2444.46 987 2432 974.538 2432 959.166Z" fill="#203864" fill-rule="evenodd" fill-opacity="1"/><path d="M2950 847.834C2950 832.462 2962.46 820 2977.83 820L3413.17 820C3428.54 820 3441 832.462 3441 847.834L3441 959.166C3441 974.538 3428.54 987 3413.17 987L2977.83 987C2962.46 987 2950 974.538 2950 959.166Z" fill="#203864" fill-rule="evenodd" fill-opacity="1"/><path d="M3467 847.834C3467 832.461 3479.46 820 3494.83 820L3931.17 820C3946.54 820 3959 832.461 3959 847.834L3959 959.166C3959 974.538 3946.54 987 3931.17 987L3494.83 987C3479.46 987 3467 974.538 3467 959.166Z" fill="#203864" fill-rule="evenodd" fill-opacity="1"/><path d="M2432 1033C2432 1017.54 2444.54 1005 2460 1005L2895 1005C2910.46 1005 2923 1017.54 2923 1033L2923 1145C2923 1160.46 2910.46 1173 2895 1173L2460 1173C2444.54 1173 2432 1160.46 2432 1145Z" fill="#203864" fill-rule="evenodd" fill-opacity="0.588235"/><path d="M2950 1033C2950 1017.54 2962.54 1005 2978 1005L3413 1005C3428.46 1005 3441 1017.54 3441 1033L3441 1145C3441 1160.46 3428.46 1173 3413 1173L2978 1173C2962.54 1173 2950 1160.46 2950 1145Z" fill="#203864" fill-rule="evenodd" fill-opacity="0.588235"/><path d="M3467 1033C3467 1017.54 3479.54 1005 3495 1005L3931 1005C3946.46 1005 3959 1017.54 3959 1033L3959 1145C3959 1160.46 3946.46 1173 3931 1173L3495 1173C3479.54 1173 3467 1160.46 3467 1145Z" fill="#203864" fill-rule="evenodd" fill-opacity="0.588235"/><path d="M2432 1219C2432 1203.54 2444.54 1191 2460 1191L2895 1191C2910.46 1191 2923 1203.54 2923 1219L2923 1331C2923 1346.46 2910.46 1359 2895 1359L2460 1359C2444.54 1359 2432 1346.46 2432 1331Z" fill="#203864" fill-rule="evenodd" fill-opacity="0.588235"/><path d="M2950 1219C2950 1203.54 2962.54 1191 2978 1191L3413 1191C3428.46 1191 3441 1203.54 3441 1219L3441 1331C3441 1346.46 3428.46 1359 3413 1359L2978 1359C2962.54 1359 2950 1346.46 2950 1331Z" fill="#203864" fill-rule="evenodd" fill-opacity="0.588235"/><path d="M3467 1219C3467 1203.54 3479.54 1191 3495 1191L3931 1191C3946.46 1191 3959 1203.54 3959 1219L3959 1331C3959 1346.46 3946.46 1359 3931 1359L3495 1359C3479.54 1359 3467 1346.46 3467 1331Z" fill="#203864" fill-rule="evenodd" fill-opacity="0.588235"/><path d="M2432 1404.83C2432 1389.46 2444.46 1377 2459.83 1377L2895.17 1377C2910.54 1377 2923 1389.46 2923 1404.83L2923 1516.17C2923 1531.54 2910.54 1544 2895.17 1544L2459.83 1544C2444.46 1544 2432 1531.54 2432 1516.17Z" fill="#203864" fill-rule="evenodd" fill-opacity="0.588235"/><path d="M2950 1404.83C2950 1389.46 2962.46 1377 2977.83 1377L3413.17 1377C3428.54 1377 3441 1389.46 3441 1404.83L3441 1516.17C3441 1531.54 3428.54 1544 3413.17 1544L2977.83 1544C2962.46 1544 2950 1531.54 2950 1516.17Z" fill="#203864" fill-rule="evenodd" fill-opacity="0.588235"/><path d="M3467 1404.83C3467 1389.46 3479.46 1377 3494.83 1377L3931.17 1377C3946.54 1377 3959 1389.46 3959 1404.83L3959 1516.17C3959 1531.54 3946.54 1544 3931.17 1544L3494.83 1544C3479.46 1544 3467 1531.54 3467 1516.17Z" fill="#203864" fill-rule="evenodd" fill-opacity="0.588235"/><path d="M1896 1104 2079 1104 2079 1046 2195 1162 2079 1278 2079 1220 1896 1220Z" fill="#000000" fill-rule="evenodd" fill-opacity="1"/><path d="M3992 847.834C3992 832.462 4004.46 820 4019.83 820L4455.17 820C4470.54 820 4483 832.462 4483 847.834L4483 959.166C4483 974.538 4470.54 987 4455.17 987L4019.83 987C4004.46 987 3992 974.538 3992 959.166Z" fill="#CF2CB9" fill-rule="evenodd" fill-opacity="1"/><path d="M3992 1033C3992 1017.54 4004.54 1005 4020 1005L4455 1005C4470.46 1005 4483 1017.54 4483 1033L4483 1145C4483 1160.46 4470.46 1173 4455 1173L4020 1173C4004.54 1173 3992 1160.46 3992 1145Z" fill="#CF2CB9" fill-rule="evenodd" fill-opacity="0.588235"/><path d="M3992 1219C3992 1203.54 4004.54 1191 4020 1191L4455 1191C4470.46 1191 4483 1203.54 4483 1219L4483 1331C4483 1346.46 4470.46 1359 4455 1359L4020 1359C4004.54 1359 3992 1346.46 3992 1331Z" fill="#CF2CB9" fill-rule="evenodd" fill-opacity="0.588235"/><path d="M3992 1404.83C3992 1389.46 4004.46 1377 4019.83 1377L4455.17 1377C4470.54 1377 4483 1389.46 4483 1404.83L4483 1516.17C4483 1531.54 4470.54 1544 4455.17 1544L4019.83 1544C4004.46 1544 3992 1531.54 3992 1516.17Z" fill="#CF2CB9" fill-rule="evenodd" fill-opacity="0.588235"/></g></g></svg>