<svg width="3319" height="701" xmlns="http://www.w3.org/2000/svg" xmlns:xlink="http://www.w3.org/1999/xlink" xml:space="preserve" overflow="hidden"><g transform="translate(-430 -165)"><g><path d="M434 192.001C434 177.089 446.089 165 461.001 165L897.999 165C912.911 165 925 177.089 925 192.001L925 299.999C925 314.911 912.911 326.999 897.999 326.999L461.001 326.999C446.089 326.999 434 314.911 434 299.999Z" fill="#CF2CB9" fill-rule="evenodd" fill-opacity="1"/><path d="M951 192.001C951 177.089 963.089 165 978.001 165L1416 165C1430.91 165 1443 177.089 1443 192.001L1443 300C1443 314.912 1430.91 327 1416 327L978.001 327C963.089 327 951 314.912 951 300Z" fill="#CF2CB9" fill-rule="evenodd" fill-opacity="1"/><path d="M1469 192.001C1469 177.089 1481.09 165 1496 165L1933 165C1947.91 165 1960 177.089 1960 192.001L1960 299.999C1960 314.911 1947.91 327 1933 327L1496 327C1481.09 327 1469 314.911 1469 299.999Z" fill="#203864" fill-rule="evenodd" fill-opacity="1"/><path d="M434 370.834C434 356.014 446.014 344 460.834 344L898.166 344C912.986 344 925 356.014 925 370.834L925 478.166C925 492.986 912.986 505 898.166 505L460.834 505C446.014 505 434 492.986 434 478.166Z" fill="#CF2CB9" fill-rule="evenodd" fill-opacity="0.588235"/><path d="M951 370.834C951 356.014 963.014 344 977.834 344L1416.17 344C1430.99 344 1443 356.014 1443 370.834L1443 478.166C1443 492.986 1430.99 505 1416.17 505L977.834 505C963.014 505 951 492.986 951 478.166Z" fill="#CF2CB9" fill-rule="evenodd" fill-opacity="0.588235"/><path d="M1469 370.834C1469 356.014 1481.01 344 1495.83 344L1933.17 344C1947.99 344 1960 356.014 1960 370.834L1960 478.166C1960 492.986 1947.99 505 1933.17 505L1495.83 505C1481.01 505 1469 492.986 1469 478.166Z" fill="#203864" fill-rule="evenodd" fill-opacity="0.588235"/><path d="M434 549.001C434 534.089 446.089 522 461.001 522L897.999 522C912.911 522 925 534.089 925 549.001L925 656.999C925 671.911 912.911 684 897.999 684L461.001 684C446.089 684 434 671.911 434 656.999Z" fill="#CF2CB9" fill-rule="evenodd" fill-opacity="0.588235"/><path d="M951 549.001C951 534.089 963.089 522 978.001 522L1416 522C1430.91 522 1443 534.089 1443 549.001L1443 657C1443 671.912 1430.91 684.001 1416 684.001L978.001 684.001C963.089 684.001 951 671.912 951 657Z" fill="#CF2CB9" fill-rule="evenodd" fill-opacity="0.588235"/><path d="M1469 549.001C1469 534.089 1481.09 522 1496 522L1933 522C1947.91 522 1960 534.089 1960 549.001L1960 656.999C1960 671.911 1947.91 684 1933 684L1496 684C1481.09 684 1469 671.911 1469 656.999Z" fill="#203864" fill-rule="evenodd" fill-opacity="0.588235"/><path d="M434 727.834C434 713.014 446.014 701 460.834 701L898.166 701C912.986 701 925 713.014 925 727.834L925 835.166C925 849.986 912.986 862 898.166 862L460.834 862C446.014 862 434 849.986 434 835.166Z" fill="#CF2CB9" fill-rule="evenodd" fill-opacity="0.588235"/><path d="M951 727.834C951 713.014 963.014 701 977.834 701L1416.17 701C1430.99 701 1443 713.014 1443 727.834L1443 835.166C1443 849.986 1430.99 862 1416.17 862L977.834 862C963.014 862 951 849.986 951 835.166Z" fill="#CF2CB9" fill-rule="evenodd" fill-opacity="0.588235"/><path d="M1469 727.834C1469 713.014 1481.01 701 1495.83 701L1933.17 701C1947.99 701 1960 713.014 1960 727.834L1960 835.166C1960 849.986 1947.99 862 1933.17 862L1495.83 862C1481.01 862 1469 849.986 1469 835.166Z" fill="#203864" fill-rule="evenodd" fill-opacity="0.588235"/><path d="M2221 464.75 2404.5 464.75 2404.5 407 2520 522.5 2404.5 638 2404.5 580.25 2221 580.25Z" fill="#000000" fill-rule="evenodd" fill-opacity="1"/><path d="M2739 192.001C2739 177.089 2751.09 165 2766 165L3203 165C3217.91 165 3230 177.089 3230 192.001L3230 299.999C3230 314.911 3217.91 326.999 3203 326.999L2766 326.999C2751.09 326.999 2739 314.911 2739 299.999Z" fill="#CF2CB9" fill-rule="evenodd" fill-opacity="1"/><path d="M3257 192.001C3257 177.089 3269.09 165 3284 165L3721 165C3735.91 165 3748 177.089 3748 192.001L3748 299.999C3748 314.911 3735.91 326.999 3721 326.999L3284 326.999C3269.09 326.999 3257 314.911 3257 299.999Z" fill="#CF2CB9" fill-rule="evenodd" fill-opacity="1"/><path d="M2739 370.834C2739 356.014 2751.01 344 2765.83 344L3203.17 344C3217.99 344 3230 356.014 3230 370.834L3230 478.166C3230 492.986 3217.99 505 3203.17 505L2765.83 505C2751.01 505 2739 492.986 2739 478.166Z" fill="#CF2CB9" fill-rule="evenodd" fill-opacity="0.588235"/><path d="M3257 370.834C3257 356.014 3269.01 344 3283.83 344L3721.17 344C3735.99 344 3748 356.014 3748 370.834L3748 478.166C3748 492.986 3735.99 505 3721.17 505L3283.83 505C3269.01 505 3257 492.986 3257 478.166Z" fill="#CF2CB9" fill-rule="evenodd" fill-opacity="0.588235"/><path d="M2739 549.001C2739 534.089 2751.09 522 2766 522L3203 522C3217.91 522 3230 534.089 3230 549.001L3230 656.999C3230 671.911 3217.91 684 3203 684L2766 684C2751.09 684 2739 671.911 2739 656.999Z" fill="#CF2CB9" fill-rule="evenodd" fill-opacity="0.588235"/><path d="M3257 549.001C3257 534.089 3269.09 522 3284 522L3721 522C3735.91 522 3748 534.089 3748 549.001L3748 656.999C3748 671.911 3735.91 684 3721 684L3284 684C3269.09 684 3257 671.911 3257 656.999Z" fill="#CF2CB9" fill-rule="evenodd" fill-opacity="0.588235"/><path d="M2739 727.834C2739 713.014 2751.01 701 2765.83 701L3203.17 701C3217.99 701 3230 713.014 3230 727.834L3230 835.166C3230 849.986 3217.99 862 3203.17 862L2765.83 862C2751.01 862 2739 849.986 2739 835.166Z" fill="#CF2CB9" fill-rule="evenodd" fill-opacity="0.588235"/><path d="M3257 727.834C3257 713.014 3269.01 701 3283.83 701L3721.17 701C3735.99 701 3748 713.014 3748 727.834L3748 835.166C3748 849.986 3735.99 862 3721.17 862L3283.83 862C3269.01 862 3257 849.986 3257 835.166Z" fill="#CF2CB9" fill-rule="evenodd" fill-opacity="0.588235"/></g></g></svg>