<svg width="3868" height="1485" xmlns="http://www.w3.org/2000/svg" xmlns:xlink="http://www.w3.org/1999/xlink" xml:space="preserve" overflow="hidden"><g transform="translate(-458 -252)"><g><path d="M462 283.834C462 268.462 474.462 256 489.834 256L925.166 256C940.538 256 953 268.462 953 283.834L953 395.166C953 410.538 940.538 423 925.166 423L489.834 423C474.462 423 462 410.538 462 395.166Z" fill="#203864" fill-rule="evenodd" fill-opacity="1"/><path d="M980 283.834C980 268.462 992.462 256 1007.83 256L1443.17 256C1458.54 256 1471 268.462 1471 283.834L1471 395.166C1471 410.538 1458.54 423 1443.17 423L1007.83 423C992.462 423 980 410.538 980 395.166Z" fill="#203864" fill-rule="evenodd" fill-opacity="1"/><path d="M1498 283.834C1498 268.462 1510.46 256 1525.83 256L1961.17 256C1976.54 256 1989 268.462 1989 283.834L1989 395.166C1989 410.538 1976.54 423 1961.17 423L1525.83 423C1510.46 423 1498 410.538 1498 395.166Z" fill="#203864" fill-rule="evenodd" fill-opacity="1"/><path d="M462 469.001C462 453.536 474.536 441 490.001 441L924.999 441C940.464 441 953 453.536 953 469.001L953 581C953 596.464 940.464 609 924.999 609L490.001 609C474.536 609 462 596.464 462 581Z" fill="#CF2CB9" fill-rule="evenodd" fill-opacity="0.588235"/><path d="M980 469.001C980 453.536 992.536 441 1008 441L1443 441C1458.46 441 1471 453.536 1471 469.001L1471 581C1471 596.464 1458.46 609 1443 609L1008 609C992.536 609 980 596.464 980 581Z" fill="#CF2CB9" fill-rule="evenodd" fill-opacity="0.588235"/><path d="M1498 469.001C1498 453.536 1510.54 441 1526 441L1961 441C1976.46 441 1989 453.536 1989 469.001L1989 581C1989 596.464 1976.46 609 1961 609L1526 609C1510.54 609 1498 596.464 1498 581Z" fill="#CF2CB9" fill-rule="evenodd" fill-opacity="0.588235"/><path d="M462 655.001C462 639.536 474.536 627 490.001 627L924.999 627C940.464 627 953 639.536 953 655.001L953 767C953 782.464 940.464 795 924.999 795L490.001 795C474.536 795 462 782.464 462 767Z" fill="#203864" fill-rule="evenodd" fill-opacity="0.588235"/><path d="M980 655.001C980 639.536 992.536 627 1008 627L1443 627C1458.46 627 1471 639.536 1471 655.001L1471 767C1471 782.464 1458.46 795 1443 795L1008 795C992.536 795 980 782.464 980 767Z" fill="#203864" fill-rule="evenodd" fill-opacity="0.588235"/><path d="M1498 655.001C1498 639.536 1510.54 627 1526 627L1961 627C1976.46 627 1989 639.536 1989 655.001L1989 767C1989 782.464 1976.46 795 1961 795L1526 795C1510.54 795 1498 782.464 1498 767Z" fill="#203864" fill-rule="evenodd" fill-opacity="0.588235"/><path d="M462 840.834C462 825.462 474.462 813 489.834 813L925.166 813C940.538 813 953 825.462 953 840.834L953 952.166C953 967.538 940.538 980 925.166 980L489.834 980C474.462 980 462 967.538 462 952.166Z" fill="#203864" fill-rule="evenodd" fill-opacity="0.588235"/><path d="M980 840.834C980 825.462 992.462 813 1007.83 813L1443.17 813C1458.54 813 1471 825.462 1471 840.834L1471 952.166C1471 967.538 1458.54 980 1443.17 980L1007.83 980C992.462 980 980 967.538 980 952.166Z" fill="#203864" fill-rule="evenodd" fill-opacity="0.588235"/><path d="M1498 840.834C1498 825.462 1510.46 813 1525.83 813L1961.17 813C1976.54 813 1989 825.462 1989 840.834L1989 952.166C1989 967.538 1976.54 980 1961.17 980L1525.83 980C1510.46 980 1498 967.538 1498 952.166Z" fill="#203864" fill-rule="evenodd" fill-opacity="0.588235"/><path d="M462 1028C462 1012.54 474.536 1000 490.001 1000L924.999 1000C940.464 1000 953 1012.54 953 1028L953 1140C953 1155.46 940.464 1168 924.999 1168L490.001 1168C474.536 1168 462 1155.46 462 1140Z" fill="#CF2CB9" fill-rule="evenodd" fill-opacity="0.588235"/><path d="M980 1028C980 1012.54 992.536 1000 1008 1000L1443 1000C1458.46 1000 1471 1012.54 1471 1028L1471 1140C1471 1155.46 1458.46 1168 1443 1168L1008 1168C992.536 1168 980 1155.46 980 1140Z" fill="#CF2CB9" fill-rule="evenodd" fill-opacity="0.588235"/><path d="M1498 1028C1498 1012.54 1510.54 1000 1526 1000L1961 1000C1976.46 1000 1989 1012.54 1989 1028L1989 1140C1989 1155.46 1976.46 1168 1961 1168L1526 1168C1510.54 1168 1498 1155.46 1498 1140Z" fill="#CF2CB9" fill-rule="evenodd" fill-opacity="0.588235"/><path d="M462 1221.83C462 1206.46 474.462 1194 489.834 1194L925.166 1194C940.538 1194 953 1206.46 953 1221.83L953 1333.17C953 1348.54 940.538 1361 925.166 1361L489.834 1361C474.462 1361 462 1348.54 462 1333.17Z" fill="#203864" fill-rule="evenodd" fill-opacity="0.588235"/><path d="M980 1221.83C980 1206.46 992.462 1194 1007.83 1194L1443.17 1194C1458.54 1194 1471 1206.46 1471 1221.83L1471 1333.17C1471 1348.54 1458.54 1361 1443.17 1361L1007.83 1361C992.462 1361 980 1348.54 980 1333.17Z" fill="#203864" fill-rule="evenodd" fill-opacity="0.588235"/><path d="M1498 1221.83C1498 1206.46 1510.46 1194 1525.83 1194L1961.17 1194C1976.54 1194 1989 1206.46 1989 1221.83L1989 1333.17C1989 1348.54 1976.54 1361 1961.17 1361L1525.83 1361C1510.46 1361 1498 1348.54 1498 1333.17Z" fill="#203864" fill-rule="evenodd" fill-opacity="0.588235"/><path d="M462 1407C462 1391.54 474.536 1379 490.001 1379L924.999 1379C940.464 1379 953 1391.54 953 1407L953 1519C953 1534.46 940.464 1547 924.999 1547L490.001 1547C474.536 1547 462 1534.46 462 1519Z" fill="#203864" fill-rule="evenodd" fill-opacity="0.588235"/><path d="M980 1407C980 1391.54 992.536 1379 1008 1379L1443 1379C1458.46 1379 1471 1391.54 1471 1407L1471 1519C1471 1534.46 1458.46 1547 1443 1547L1008 1547C992.536 1547 980 1534.46 980 1519Z" fill="#203864" fill-rule="evenodd" fill-opacity="0.588235"/><path d="M1498 1407C1498 1391.54 1510.54 1379 1526 1379L1961 1379C1976.46 1379 1989 1391.54 1989 1407L1989 1519C1989 1534.46 1976.46 1547 1961 1547L1526 1547C1510.54 1547 1498 1534.46 1498 1519Z" fill="#203864" fill-rule="evenodd" fill-opacity="0.588235"/><path d="M462 1593C462 1577.54 474.536 1565 490.001 1565L924.999 1565C940.464 1565 953 1577.54 953 1593L953 1705C953 1720.46 940.464 1733 924.999 1733L490.001 1733C474.536 1733 462 1720.46 462 1705Z" fill="#CF2CB9" fill-rule="evenodd" fill-opacity="0.588235"/><path d="M980 1593C980 1577.54 992.536 1565 1008 1565L1443 1565C1458.46 1565 1471 1577.54 1471 1593L1471 1705C1471 1720.46 1458.46 1733 1443 1733L1008 1733C992.536 1733 980 1720.46 980 1705Z" fill="#CF2CB9" fill-rule="evenodd" fill-opacity="0.588235"/><path d="M1498 1593C1498 1577.54 1510.54 1565 1526 1565L1961 1565C1976.46 1565 1989 1577.54 1989 1593L1989 1705C1989 1720.46 1976.46 1733 1961 1733L1526 1733C1510.54 1733 1498 1720.46 1498 1705Z" fill="#CF2CB9" fill-rule="evenodd" fill-opacity="0.588235"/><path d="M2245 1048.75 2428.5 1048.75 2428.5 991 2544 1106.5 2428.5 1222 2428.5 1164.25 2245 1164.25Z" fill="#000000" fill-rule="evenodd" fill-opacity="1"/><path d="M2796 749C2796 733.536 2808.54 721 2824 721L3259 721C3274.46 721 3287 733.536 3287 749L3287 860.999C3287 876.464 3274.46 889 3259 889L2824 889C2808.54 889 2796 876.464 2796 860.999Z" fill="#203864" fill-rule="evenodd" fill-opacity="1"/><path d="M3314 749C3314 733.536 3326.54 721 3342 721L3777 721C3792.46 721 3805 733.536 3805 749L3805 860.999C3805 876.464 3792.46 889 3777 889L3342 889C3326.54 889 3314 876.464 3314 860.999Z" fill="#203864" fill-rule="evenodd" fill-opacity="1"/><path d="M3831 749C3831 733.536 3843.54 721 3859 721L4295 721C4310.46 721 4323 733.536 4323 749L4323 860.999C4323 876.463 4310.46 888.999 4295 888.999L3859 888.999C3843.54 888.999 3831 876.463 3831 860.999Z" fill="#203864" fill-rule="evenodd" fill-opacity="1"/><path d="M2796 935.001C2796 919.536 2808.54 907 2824 907L3259 907C3274.46 907 3287 919.536 3287 935.001L3287 1047C3287 1062.46 3274.46 1075 3259 1075L2824 1075C2808.54 1075 2796 1062.46 2796 1047Z" fill="#CF2CB9" fill-rule="evenodd" fill-opacity="0.588235"/><path d="M3314 935.001C3314 919.536 3326.54 907 3342 907L3777 907C3792.46 907 3805 919.536 3805 935.001L3805 1047C3805 1062.46 3792.46 1075 3777 1075L3342 1075C3326.54 1075 3314 1062.46 3314 1047Z" fill="#CF2CB9" fill-rule="evenodd" fill-opacity="0.588235"/><path d="M3831 935.001C3831 919.536 3843.54 907 3859 907L4295 907C4310.46 907 4323 919.536 4323 935.001L4323 1047C4323 1062.46 4310.46 1075 4295 1075L3859 1075C3843.54 1075 3831 1062.46 3831 1047Z" fill="#CF2CB9" fill-rule="evenodd" fill-opacity="0.588235"/><path d="M2796 1120.83C2796 1105.46 2808.46 1093 2823.83 1093L3259.17 1093C3274.54 1093 3287 1105.46 3287 1120.83L3287 1232.17C3287 1247.54 3274.54 1260 3259.17 1260L2823.83 1260C2808.46 1260 2796 1247.54 2796 1232.17Z" fill="#CF2CB9" fill-rule="evenodd" fill-opacity="0.588235"/><path d="M3314 1120.83C3314 1105.46 3326.46 1093 3341.83 1093L3777.17 1093C3792.54 1093 3805 1105.46 3805 1120.83L3805 1232.17C3805 1247.54 3792.54 1260 3777.17 1260L3341.83 1260C3326.46 1260 3314 1247.54 3314 1232.17Z" fill="#CF2CB9" fill-rule="evenodd" fill-opacity="0.588235"/><path d="M3831 1120.83C3831 1105.46 3843.46 1093 3858.83 1093L4295.17 1093C4310.54 1093 4323 1105.46 4323 1120.83L4323 1232.17C4323 1247.54 4310.54 1260 4295.17 1260L3858.83 1260C3843.46 1260 3831 1247.54 3831 1232.17Z" fill="#CF2CB9" fill-rule="evenodd" fill-opacity="0.588235"/><path d="M2796 1306C2796 1290.54 2808.54 1278 2824 1278L3259 1278C3274.46 1278 3287 1290.54 3287 1306L3287 1418C3287 1433.46 3274.46 1446 3259 1446L2824 1446C2808.54 1446 2796 1433.46 2796 1418Z" fill="#CF2CB9" fill-rule="evenodd" fill-opacity="0.588235"/><path d="M3314 1306C3314 1290.54 3326.54 1278 3342 1278L3777 1278C3792.46 1278 3805 1290.54 3805 1306L3805 1418C3805 1433.46 3792.46 1446 3777 1446L3342 1446C3326.54 1446 3314 1433.46 3314 1418Z" fill="#CF2CB9" fill-rule="evenodd" fill-opacity="0.588235"/><path d="M3831 1306C3831 1290.54 3843.54 1278 3859 1278L4295 1278C4310.46 1278 4323 1290.54 4323 1306L4323 1418C4323 1433.46 4310.46 1446 4295 1446L3859 1446C3843.54 1446 3831 1433.46 3831 1418Z" fill="#CF2CB9" fill-rule="evenodd" fill-opacity="0.588235"/></g></g></svg>