<svg width="3846" height="1118" xmlns="http://www.w3.org/2000/svg" xmlns:xlink="http://www.w3.org/1999/xlink" xml:space="preserve" overflow="hidden"><g transform="translate(-444 -192)"><g><path d="M2763 407.001C2763 391.536 2775.54 379 2791 379L3226 379C3241.46 379 3254 391.536 3254 407.001L3254 519C3254 534.464 3241.46 547 3226 547L2791 547C2775.54 547 2763 534.464 2763 519Z" fill="#203864" fill-rule="evenodd" fill-opacity="1"/><path d="M3280 407.001C3280 391.536 3292.54 379 3308 379L3744 379C3759.46 379 3772 391.536 3772 407.001L3772 518.999C3772 534.464 3759.46 547 3744 547L3308 547C3292.54 547 3280 534.464 3280 518.999Z" fill="#203864" fill-rule="evenodd" fill-opacity="1"/><path d="M3798 407.001C3798 391.536 3810.54 379 3826 379L4261 379C4276.46 379 4289 391.536 4289 407.001L4289 519C4289 534.464 4276.46 547 4261 547L3826 547C3810.54 547 3798 534.464 3798 519Z" fill="#203864" fill-rule="evenodd" fill-opacity="1"/><path d="M2763 592.001C2763 576.536 2775.54 564 2791 564L3226 564C3241.46 564 3254 576.536 3254 592.001L3254 704C3254 719.464 3241.46 732 3226 732L2791 732C2775.54 732 2763 719.464 2763 704Z" fill="#CF2CB9" fill-rule="evenodd" fill-opacity="0.588235"/><text fill="#FFFFFF" fill-opacity="1" font-family="Calibri,Calibri_MSFontService,sans-serif" font-style="normal" font-variant="normal" font-weight="400" font-stretch="normal" font-size="83" text-anchor="start" direction="ltr" writing-mode="lr-tb" unicode-bidi="normal" text-decoration="none" transform="matrix(1 0 0 1 2987.33 676)">1</text><path d="M3280 592.001C3280 576.536 3292.54 564 3308 564L3744 564C3759.46 564 3772 576.536 3772 592.001L3772 703.999C3772 719.464 3759.46 732 3744 732L3308 732C3292.54 732 3280 719.464 3280 703.999Z" fill="#CF2CB9" fill-rule="evenodd" fill-opacity="0.588235"/><path d="M3798 592.001C3798 576.536 3810.54 564 3826 564L4261 564C4276.46 564 4289 576.536 4289 592.001L4289 704C4289 719.464 4276.46 732 4261 732L3826 732C3810.54 732 3798 719.464 3798 704Z" fill="#CF2CB9" fill-rule="evenodd" fill-opacity="0.588235"/><path d="M2763 778.001C2763 762.536 2775.54 750 2791 750L3226 750C3241.46 750 3254 762.536 3254 778.001L3254 890C3254 905.464 3241.46 918 3226 918L2791 918C2775.54 918 2763 905.464 2763 890Z" fill="#CF2CB9" fill-rule="evenodd" fill-opacity="0.588235"/><text fill="#FFFFFF" fill-opacity="1" font-family="Calibri,Calibri_MSFontService,sans-serif" font-style="normal" font-variant="normal" font-weight="400" font-stretch="normal" font-size="83" text-anchor="start" direction="ltr" writing-mode="lr-tb" unicode-bidi="normal" text-decoration="none" transform="matrix(1 0 0 1 2987.33 861)">2</text><path d="M3280 778.001C3280 762.536 3292.54 750 3308 750L3744 750C3759.46 750 3772 762.536 3772 778.001L3772 889.999C3772 905.463 3759.46 918 3744 918L3308 918C3292.54 918 3280 905.463 3280 889.999Z" fill="#CF2CB9" fill-rule="evenodd" fill-opacity="0.588235"/><path d="M3798 778.001C3798 762.536 3810.54 750 3826 750L4261 750C4276.46 750 4289 762.536 4289 778.001L4289 890C4289 905.464 4276.46 918 4261 918L3826 918C3810.54 918 3798 905.464 3798 890Z" fill="#CF2CB9" fill-rule="evenodd" fill-opacity="0.588235"/><path d="M2763 963.834C2763 948.462 2775.46 936 2790.83 936L3226.17 936C3241.54 936 3254 948.462 3254 963.834L3254 1075.17C3254 1090.54 3241.54 1103 3226.17 1103L2790.83 1103C2775.46 1103 2763 1090.54 2763 1075.17Z" fill="#CF2CB9" fill-rule="evenodd" fill-opacity="0.588235"/><text fill="#FFFFFF" fill-opacity="1" font-family="Calibri,Calibri_MSFontService,sans-serif" font-style="normal" font-variant="normal" font-weight="400" font-stretch="normal" font-size="83" text-anchor="start" direction="ltr" writing-mode="lr-tb" unicode-bidi="normal" text-decoration="none" transform="matrix(1 0 0 1 2987.33 1047)">3</text><path d="M3280 963.834C3280 948.462 3292.46 936 3307.83 936L3744.17 936C3759.54 936 3772 948.462 3772 963.834L3772 1075.17C3772 1090.54 3759.54 1103 3744.17 1103L3307.83 1103C3292.46 1103 3280 1090.54 3280 1075.17Z" fill="#CF2CB9" fill-rule="evenodd" fill-opacity="0.588235"/><path d="M3798 963.834C3798 948.462 3810.46 936 3825.83 936L4261.17 936C4276.54 936 4289 948.462 4289 963.834L4289 1075.17C4289 1090.54 4276.54 1103 4261.17 1103L3825.83 1103C3810.46 1103 3798 1090.54 3798 1075.17Z" fill="#CF2CB9" fill-rule="evenodd" fill-opacity="0.588235"/><path d="M2219 765 2402 765 2402 707 2518 823 2402 939 2402 881 2219 881Z" fill="#000000" fill-rule="evenodd" fill-opacity="1"/><path d="M449 221C449 205.536 461.536 193 477 193L912 193C927.464 193 940 205.536 940 221L940 332.999C940 348.464 927.464 361 912 361L477 361C461.536 361 449 348.464 449 332.999Z" fill="#203864" fill-rule="evenodd" fill-opacity="1"/><path d="M966 221C966 205.536 978.536 193 994 193L1429 193C1444.46 193 1457 205.536 1457 221L1457 332.999C1457 348.464 1444.46 361 1429 361L994 361C978.536 361 966 348.464 966 332.999Z" fill="#203864" fill-rule="evenodd" fill-opacity="1"/><path d="M1484 221C1484 205.536 1496.54 193 1512 193L1947 193C1962.46 193 1975 205.536 1975 221L1975 332.999C1975 348.464 1962.46 361 1947 361L1512 361C1496.54 361 1484 348.464 1484 332.999Z" fill="#203864" fill-rule="evenodd" fill-opacity="1"/><path d="M449 407.001C449 391.536 461.536 379 477 379L912 379C927.464 379 940 391.536 940 407.001L940 519C940 534.464 927.464 547 912 547L477 547C461.536 547 449 534.464 449 519Z" fill="#CF2CB9" fill-rule="evenodd" fill-opacity="0.588235"/><text fill="#FFFFFF" fill-opacity="1" font-family="Calibri,Calibri_MSFontService,sans-serif" font-style="normal" font-variant="normal" font-weight="400" font-stretch="normal" font-size="83" text-anchor="start" direction="ltr" writing-mode="lr-tb" unicode-bidi="normal" text-decoration="none" transform="matrix(1 0 0 1 673.214 490)">3</text><path d="M966 407.001C966 391.536 978.536 379 994 379L1429 379C1444.46 379 1457 391.536 1457 407.001L1457 519C1457 534.464 1444.46 547 1429 547L994 547C978.536 547 966 534.464 966 519Z" fill="#CF2CB9" fill-rule="evenodd" fill-opacity="0.588235"/><path d="M1484 407.001C1484 391.536 1496.54 379 1512 379L1947 379C1962.46 379 1975 391.536 1975 407.001L1975 519C1975 534.464 1962.46 547 1947 547L1512 547C1496.54 547 1484 534.464 1484 519Z" fill="#CF2CB9" fill-rule="evenodd" fill-opacity="0.588235"/><path d="M449 592.001C449 576.536 461.536 564 477 564L912 564C927.464 564 940 576.536 940 592.001L940 704C940 719.464 927.464 732 912 732L477 732C461.536 732 449 719.464 449 704Z" fill="#CF2CB9" fill-rule="evenodd" fill-opacity="0.588235"/><text fill="#FFFFFF" fill-opacity="1" font-family="Calibri,Calibri_MSFontService,sans-serif" font-style="normal" font-variant="normal" font-weight="400" font-stretch="normal" font-size="83" text-anchor="start" direction="ltr" writing-mode="lr-tb" unicode-bidi="normal" text-decoration="none" transform="matrix(1 0 0 1 673.214 676)">2</text><path d="M966 592.001C966 576.536 978.536 564 994 564L1429 564C1444.46 564 1457 576.536 1457 592.001L1457 704C1457 719.464 1444.46 732 1429 732L994 732C978.536 732 966 719.464 966 704Z" fill="#CF2CB9" fill-rule="evenodd" fill-opacity="0.588235"/><path d="M1484 592.001C1484 576.536 1496.54 564 1512 564L1947 564C1962.46 564 1975 576.536 1975 592.001L1975 704C1975 719.464 1962.46 732 1947 732L1512 732C1496.54 732 1484 719.464 1484 704Z" fill="#CF2CB9" fill-rule="evenodd" fill-opacity="0.588235"/><path d="M449 778.001C449 762.536 461.536 750 477 750L912 750C927.464 750 940 762.536 940 778.001L940 890C940 905.464 927.464 918 912 918L477 918C461.536 918 449 905.464 449 890Z" fill="#203864" fill-rule="evenodd" fill-opacity="0.588235"/><text fill="#FFFFFF" fill-opacity="1" font-family="Calibri,Calibri_MSFontService,sans-serif" font-style="normal" font-variant="normal" font-weight="400" font-stretch="normal" font-size="83" text-anchor="start" direction="ltr" writing-mode="lr-tb" unicode-bidi="normal" text-decoration="none" transform="matrix(1 0 0 1 673.214 861)">5</text><path d="M966 778.001C966 762.536 978.536 750 994 750L1429 750C1444.46 750 1457 762.536 1457 778.001L1457 890C1457 905.464 1444.46 918 1429 918L994 918C978.536 918 966 905.464 966 890Z" fill="#203864" fill-rule="evenodd" fill-opacity="0.588235"/><path d="M1484 778.001C1484 762.536 1496.54 750 1512 750L1947 750C1962.46 750 1975 762.536 1975 778.001L1975 890C1975 905.464 1962.46 918 1947 918L1512 918C1496.54 918 1484 905.464 1484 890Z" fill="#203864" fill-rule="evenodd" fill-opacity="0.588235"/><path d="M449 968.001C449 952.536 461.536 940 477 940L912 940C927.464 940 940 952.536 940 968.001L940 1080C940 1095.46 927.464 1108 912 1108L477 1108C461.536 1108 449 1095.46 449 1080Z" fill="#CF2CB9" fill-rule="evenodd" fill-opacity="0.588235"/><text fill="#FFFFFF" fill-opacity="1" font-family="Calibri,Calibri_MSFontService,sans-serif" font-style="normal" font-variant="normal" font-weight="400" font-stretch="normal" font-size="83" text-anchor="start" direction="ltr" writing-mode="lr-tb" unicode-bidi="normal" text-decoration="none" transform="matrix(1 0 0 1 673.214 1051)">1</text><path d="M966 968.001C966 952.536 978.536 940 994 940L1429 940C1444.46 940 1457 952.536 1457 968.001L1457 1080C1457 1095.46 1444.46 1108 1429 1108L994 1108C978.536 1108 966 1095.46 966 1080Z" fill="#CF2CB9" fill-rule="evenodd" fill-opacity="0.588235"/><path d="M1484 968.001C1484 952.536 1496.54 940 1512 940L1947 940C1962.46 940 1975 952.536 1975 968.001L1975 1080C1975 1095.46 1962.46 1108 1947 1108L1512 1108C1496.54 1108 1484 1095.46 1484 1080Z" fill="#CF2CB9" fill-rule="evenodd" fill-opacity="0.588235"/><path d="M449 1153.83C449 1138.46 461.462 1126 476.834 1126L912.166 1126C927.538 1126 940 1138.46 940 1153.83L940 1265.17C940 1280.54 927.538 1293 912.166 1293L476.834 1293C461.462 1293 449 1280.54 449 1265.17Z" fill="#203864" fill-rule="evenodd" fill-opacity="0.588235"/><text fill="#FFFFFF" fill-opacity="1" font-family="Calibri,Calibri_MSFontService,sans-serif" font-style="normal" font-variant="normal" font-weight="400" font-stretch="normal" font-size="83" text-anchor="start" direction="ltr" writing-mode="lr-tb" unicode-bidi="normal" text-decoration="none" transform="matrix(1 0 0 1 673.214 1237)">4</text><path d="M966 1153.83C966 1138.46 978.462 1126 993.834 1126L1429.17 1126C1444.54 1126 1457 1138.46 1457 1153.83L1457 1265.17C1457 1280.54 1444.54 1293 1429.17 1293L993.834 1293C978.462 1293 966 1280.54 966 1265.17Z" fill="#203864" fill-rule="evenodd" fill-opacity="0.588235"/><path d="M1484 1153.83C1484 1138.46 1496.46 1126 1511.83 1126L1947.17 1126C1962.54 1126 1975 1138.46 1975 1153.83L1975 1265.17C1975 1280.54 1962.54 1293 1947.17 1293L1511.83 1293C1496.46 1293 1484 1280.54 1484 1265.17Z" fill="#203864" fill-rule="evenodd" fill-opacity="0.588235"/></g></g></svg>