<svg width="3832" height="1485" xmlns="http://www.w3.org/2000/svg" xmlns:xlink="http://www.w3.org/1999/xlink" xml:space="preserve" overflow="hidden"><g transform="translate(-458 -252)"><g><path d="M462 283.834C462 268.462 474.462 256 489.834 256L925.166 256C940.538 256 953 268.462 953 283.834L953 395.166C953 410.538 940.538 423 925.166 423L489.834 423C474.462 423 462 410.538 462 395.166Z" fill="#203864" fill-rule="evenodd" fill-opacity="1"/><path d="M980 283.834C980 268.462 992.462 256 1007.83 256L1443.17 256C1458.54 256 1471 268.462 1471 283.834L1471 395.166C1471 410.538 1458.54 423 1443.17 423L1007.83 423C992.462 423 980 410.538 980 395.166Z" fill="#203864" fill-rule="evenodd" fill-opacity="1"/><path d="M1498 283.834C1498 268.462 1510.46 256 1525.83 256L1961.17 256C1976.54 256 1989 268.462 1989 283.834L1989 395.166C1989 410.538 1976.54 423 1961.17 423L1525.83 423C1510.46 423 1498 410.538 1498 395.166Z" fill="#203864" fill-rule="evenodd" fill-opacity="1"/><path d="M462 469.001C462 453.536 474.536 441 490.001 441L924.999 441C940.464 441 953 453.536 953 469.001L953 581C953 596.464 940.464 609 924.999 609L490.001 609C474.536 609 462 596.464 462 581Z" fill="#CF2CB9" fill-rule="evenodd" fill-opacity="0.588235"/><path d="M980 469.001C980 453.536 992.536 441 1008 441L1443 441C1458.46 441 1471 453.536 1471 469.001L1471 581C1471 596.464 1458.46 609 1443 609L1008 609C992.536 609 980 596.464 980 581Z" fill="#CF2CB9" fill-rule="evenodd" fill-opacity="0.588235"/><path d="M1498 469.001C1498 453.536 1510.54 441 1526 441L1961 441C1976.46 441 1989 453.536 1989 469.001L1989 581C1989 596.464 1976.46 609 1961 609L1526 609C1510.54 609 1498 596.464 1498 581Z" fill="#CF2CB9" fill-rule="evenodd" fill-opacity="0.588235"/><path d="M462 655.001C462 639.536 474.536 627 490.001 627L924.999 627C940.464 627 953 639.536 953 655.001L953 767C953 782.464 940.464 795 924.999 795L490.001 795C474.536 795 462 782.464 462 767Z" fill="#FFD966" fill-rule="evenodd" fill-opacity="1"/><path d="M980 655.001C980 639.536 992.536 627 1008 627L1443 627C1458.46 627 1471 639.536 1471 655.001L1471 767C1471 782.464 1458.46 795 1443 795L1008 795C992.536 795 980 782.464 980 767Z" fill="#FFD966" fill-rule="evenodd" fill-opacity="1"/><path d="M1498 655.001C1498 639.536 1510.54 627 1526 627L1961 627C1976.46 627 1989 639.536 1989 655.001L1989 767C1989 782.464 1976.46 795 1961 795L1526 795C1510.54 795 1498 782.464 1498 767Z" fill="#FFD966" fill-rule="evenodd" fill-opacity="1"/><path d="M462 840.834C462 825.462 474.462 813 489.834 813L925.166 813C940.538 813 953 825.462 953 840.834L953 952.166C953 967.538 940.538 980 925.166 980L489.834 980C474.462 980 462 967.538 462 952.166Z" fill="#FFD966" fill-rule="evenodd" fill-opacity="1"/><path d="M980 840.834C980 825.462 992.462 813 1007.83 813L1443.17 813C1458.54 813 1471 825.462 1471 840.834L1471 952.166C1471 967.538 1458.54 980 1443.17 980L1007.83 980C992.462 980 980 967.538 980 952.166Z" fill="#FFD966" fill-rule="evenodd" fill-opacity="1"/><path d="M1498 840.834C1498 825.462 1510.46 813 1525.83 813L1961.17 813C1976.54 813 1989 825.462 1989 840.834L1989 952.166C1989 967.538 1976.54 980 1961.17 980L1525.83 980C1510.46 980 1498 967.538 1498 952.166Z" fill="#FFD966" fill-rule="evenodd" fill-opacity="1"/><path d="M462 1028C462 1012.54 474.536 1000 490.001 1000L924.999 1000C940.464 1000 953 1012.54 953 1028L953 1140C953 1155.46 940.464 1168 924.999 1168L490.001 1168C474.536 1168 462 1155.46 462 1140Z" fill="#FFD966" fill-rule="evenodd" fill-opacity="1"/><path d="M980 1028C980 1012.54 992.536 1000 1008 1000L1443 1000C1458.46 1000 1471 1012.54 1471 1028L1471 1140C1471 1155.46 1458.46 1168 1443 1168L1008 1168C992.536 1168 980 1155.46 980 1140Z" fill="#FFD966" fill-rule="evenodd" fill-opacity="1"/><path d="M1498 1028C1498 1012.54 1510.54 1000 1526 1000L1961 1000C1976.46 1000 1989 1012.54 1989 1028L1989 1140C1989 1155.46 1976.46 1168 1961 1168L1526 1168C1510.54 1168 1498 1155.46 1498 1140Z" fill="#FFD966" fill-rule="evenodd" fill-opacity="1"/><path d="M462 1221.83C462 1206.46 474.462 1194 489.834 1194L925.166 1194C940.538 1194 953 1206.46 953 1221.83L953 1333.17C953 1348.54 940.538 1361 925.166 1361L489.834 1361C474.462 1361 462 1348.54 462 1333.17Z" fill="#203864" fill-rule="evenodd" fill-opacity="0.588235"/><path d="M980 1221.83C980 1206.46 992.462 1194 1007.83 1194L1443.17 1194C1458.54 1194 1471 1206.46 1471 1221.83L1471 1333.17C1471 1348.54 1458.54 1361 1443.17 1361L1007.83 1361C992.462 1361 980 1348.54 980 1333.17Z" fill="#203864" fill-rule="evenodd" fill-opacity="0.588235"/><path d="M1498 1221.83C1498 1206.46 1510.46 1194 1525.83 1194L1961.17 1194C1976.54 1194 1989 1206.46 1989 1221.83L1989 1333.17C1989 1348.54 1976.54 1361 1961.17 1361L1525.83 1361C1510.46 1361 1498 1348.54 1498 1333.17Z" fill="#203864" fill-rule="evenodd" fill-opacity="0.588235"/><path d="M462 1407C462 1391.54 474.536 1379 490.001 1379L924.999 1379C940.464 1379 953 1391.54 953 1407L953 1519C953 1534.46 940.464 1547 924.999 1547L490.001 1547C474.536 1547 462 1534.46 462 1519Z" fill="#203864" fill-rule="evenodd" fill-opacity="0.588235"/><path d="M980 1407C980 1391.54 992.536 1379 1008 1379L1443 1379C1458.46 1379 1471 1391.54 1471 1407L1471 1519C1471 1534.46 1458.46 1547 1443 1547L1008 1547C992.536 1547 980 1534.46 980 1519Z" fill="#203864" fill-rule="evenodd" fill-opacity="0.588235"/><path d="M1498 1407C1498 1391.54 1510.54 1379 1526 1379L1961 1379C1976.46 1379 1989 1391.54 1989 1407L1989 1519C1989 1534.46 1976.46 1547 1961 1547L1526 1547C1510.54 1547 1498 1534.46 1498 1519Z" fill="#203864" fill-rule="evenodd" fill-opacity="0.588235"/><path d="M462 1593C462 1577.54 474.536 1565 490.001 1565L924.999 1565C940.464 1565 953 1577.54 953 1593L953 1705C953 1720.46 940.464 1733 924.999 1733L490.001 1733C474.536 1733 462 1720.46 462 1705Z" fill="#CF2CB9" fill-rule="evenodd" fill-opacity="0.588235"/><path d="M980 1593C980 1577.54 992.536 1565 1008 1565L1443 1565C1458.46 1565 1471 1577.54 1471 1593L1471 1705C1471 1720.46 1458.46 1733 1443 1733L1008 1733C992.536 1733 980 1720.46 980 1705Z" fill="#CF2CB9" fill-rule="evenodd" fill-opacity="0.588235"/><path d="M1498 1593C1498 1577.54 1510.54 1565 1526 1565L1961 1565C1976.46 1565 1989 1577.54 1989 1593L1989 1705C1989 1720.46 1976.46 1733 1961 1733L1526 1733C1510.54 1733 1498 1720.46 1498 1705Z" fill="#CF2CB9" fill-rule="evenodd" fill-opacity="0.588235"/><path d="M2245 1048.75 2428.5 1048.75 2428.5 991 2544 1106.5 2428.5 1222 2428.5 1164.25 2245 1164.25Z" fill="#000000" fill-rule="evenodd" fill-opacity="1"/><path d="M2763 283.834C2763 268.462 2775.46 256 2790.83 256L3226.17 256C3241.54 256 3254 268.462 3254 283.834L3254 395.166C3254 410.538 3241.54 423 3226.17 423L2790.83 423C2775.46 423 2763 410.538 2763 395.166Z" fill="#203864" fill-rule="evenodd" fill-opacity="1"/><path d="M3281 283.834C3281 268.462 3293.46 256 3308.83 256L3744.17 256C3759.54 256 3772 268.462 3772 283.834L3772 395.166C3772 410.538 3759.54 423 3744.17 423L3308.83 423C3293.46 423 3281 410.538 3281 395.166Z" fill="#203864" fill-rule="evenodd" fill-opacity="1"/><path d="M3798 283.834C3798 268.462 3810.46 256 3825.83 256L4262.17 256C4277.54 256 4290 268.462 4290 283.834L4290 395.166C4290 410.539 4277.54 423 4262.17 423L3825.83 423C3810.46 423 3798 410.539 3798 395.166Z" fill="#203864" fill-rule="evenodd" fill-opacity="1"/><path d="M2763 469.001C2763 453.536 2775.54 441 2791 441L3226 441C3241.46 441 3254 453.536 3254 469.001L3254 581C3254 596.464 3241.46 609 3226 609L2791 609C2775.54 609 2763 596.464 2763 581Z" fill="#385723" fill-rule="evenodd" fill-opacity="0.588235"/><path d="M3281 469.001C3281 453.536 3293.54 441 3309 441L3744 441C3759.46 441 3772 453.536 3772 469.001L3772 581C3772 596.464 3759.46 609 3744 609L3309 609C3293.54 609 3281 596.464 3281 581Z" fill="#385723" fill-rule="evenodd" fill-opacity="0.588235"/><path d="M3798 469.001C3798 453.536 3810.54 441 3826 441L4262 441C4277.46 441 4290 453.536 4290 469.001L4290 580.999C4290 596.463 4277.46 609 4262 609L3826 609C3810.54 609 3798 596.463 3798 580.999Z" fill="#385723" fill-rule="evenodd" fill-opacity="0.588235"/><path d="M2763 655.001C2763 639.536 2775.54 627 2791 627L3226 627C3241.46 627 3254 639.536 3254 655.001L3254 767C3254 782.464 3241.46 795 3226 795L2791 795C2775.54 795 2763 782.464 2763 767Z" fill="#ED7D31" fill-rule="evenodd" fill-opacity="1"/><path d="M3281 655.001C3281 639.536 3293.54 627 3309 627L3744 627C3759.46 627 3772 639.536 3772 655.001L3772 767C3772 782.464 3759.46 795 3744 795L3309 795C3293.54 795 3281 782.464 3281 767Z" fill="#ED7D31" fill-rule="evenodd" fill-opacity="1"/><path d="M3798 655.001C3798 639.536 3810.54 627 3826 627L4262 627C4277.46 627 4290 639.536 4290 655.001L4290 766.999C4290 782.463 4277.46 795 4262 795L3826 795C3810.54 795 3798 782.463 3798 766.999Z" fill="#ED7D31" fill-rule="evenodd" fill-opacity="1"/><path d="M2763 840.834C2763 825.462 2775.46 813 2790.83 813L3226.17 813C3241.54 813 3254 825.462 3254 840.834L3254 952.166C3254 967.538 3241.54 980 3226.17 980L2790.83 980C2775.46 980 2763 967.538 2763 952.166Z" fill="#ED7D31" fill-rule="evenodd" fill-opacity="1"/><path d="M3281 840.834C3281 825.462 3293.46 813 3308.83 813L3744.17 813C3759.54 813 3772 825.462 3772 840.834L3772 952.166C3772 967.538 3759.54 980 3744.17 980L3308.83 980C3293.46 980 3281 967.538 3281 952.166Z" fill="#ED7D31" fill-rule="evenodd" fill-opacity="1"/><path d="M3798 840.834C3798 825.462 3810.46 813 3825.83 813L4262.17 813C4277.54 813 4290 825.462 4290 840.834L4290 952.166C4290 967.538 4277.54 980 4262.17 980L3825.83 980C3810.46 980 3798 967.538 3798 952.166Z" fill="#ED7D31" fill-rule="evenodd" fill-opacity="1"/><path d="M2763 1028C2763 1012.54 2775.54 1000 2791 1000L3226 1000C3241.46 1000 3254 1012.54 3254 1028L3254 1140C3254 1155.46 3241.46 1168 3226 1168L2791 1168C2775.54 1168 2763 1155.46 2763 1140Z" fill="#ED7D31" fill-rule="evenodd" fill-opacity="1"/><path d="M3281 1028C3281 1012.54 3293.54 1000 3309 1000L3744 1000C3759.46 1000 3772 1012.54 3772 1028L3772 1140C3772 1155.46 3759.46 1168 3744 1168L3309 1168C3293.54 1168 3281 1155.46 3281 1140Z" fill="#ED7D31" fill-rule="evenodd" fill-opacity="1"/><path d="M3798 1028C3798 1012.54 3810.54 1000 3826 1000L4262 1000C4277.46 1000 4290 1012.54 4290 1028L4290 1140C4290 1155.46 4277.46 1168 4262 1168L3826 1168C3810.54 1168 3798 1155.46 3798 1140Z" fill="#ED7D31" fill-rule="evenodd" fill-opacity="1"/><path d="M2763 1221.83C2763 1206.46 2775.46 1194 2790.83 1194L3226.17 1194C3241.54 1194 3254 1206.46 3254 1221.83L3254 1333.17C3254 1348.54 3241.54 1361 3226.17 1361L2790.83 1361C2775.46 1361 2763 1348.54 2763 1333.17Z" fill="#AFABAB" fill-rule="evenodd" fill-opacity="0.588235"/><path d="M3281 1221.83C3281 1206.46 3293.46 1194 3308.83 1194L3744.17 1194C3759.54 1194 3772 1206.46 3772 1221.83L3772 1333.17C3772 1348.54 3759.54 1361 3744.17 1361L3308.83 1361C3293.46 1361 3281 1348.54 3281 1333.17Z" fill="#AFABAB" fill-rule="evenodd" fill-opacity="0.588235"/><path d="M3798 1221.83C3798 1206.46 3810.46 1194 3825.83 1194L4262.17 1194C4277.54 1194 4290 1206.46 4290 1221.83L4290 1333.17C4290 1348.54 4277.54 1361 4262.17 1361L3825.83 1361C3810.46 1361 3798 1348.54 3798 1333.17Z" fill="#AFABAB" fill-rule="evenodd" fill-opacity="0.588235"/><path d="M2763 1407C2763 1391.54 2775.54 1379 2791 1379L3226 1379C3241.46 1379 3254 1391.54 3254 1407L3254 1519C3254 1534.46 3241.46 1547 3226 1547L2791 1547C2775.54 1547 2763 1534.46 2763 1519Z" fill="#AFABAB" fill-rule="evenodd" fill-opacity="0.588235"/><path d="M3281 1407C3281 1391.54 3293.54 1379 3309 1379L3744 1379C3759.46 1379 3772 1391.54 3772 1407L3772 1519C3772 1534.46 3759.46 1547 3744 1547L3309 1547C3293.54 1547 3281 1534.46 3281 1519Z" fill="#AFABAB" fill-rule="evenodd" fill-opacity="0.588235"/><path d="M3798 1407C3798 1391.54 3810.54 1379 3826 1379L4262 1379C4277.46 1379 4290 1391.54 4290 1407L4290 1519C4290 1534.46 4277.46 1547 4262 1547L3826 1547C3810.54 1547 3798 1534.46 3798 1519Z" fill="#AFABAB" fill-rule="evenodd" fill-opacity="0.588235"/><path d="M2763 1593C2763 1577.54 2775.54 1565 2791 1565L3226 1565C3241.46 1565 3254 1577.54 3254 1593L3254 1705C3254 1720.46 3241.46 1733 3226 1733L2791 1733C2775.54 1733 2763 1720.46 2763 1705Z" fill="#385723" fill-rule="evenodd" fill-opacity="0.588235"/><path d="M3281 1593C3281 1577.54 3293.54 1565 3309 1565L3744 1565C3759.46 1565 3772 1577.54 3772 1593L3772 1705C3772 1720.46 3759.46 1733 3744 1733L3309 1733C3293.54 1733 3281 1720.46 3281 1705Z" fill="#385723" fill-rule="evenodd" fill-opacity="0.588235"/><path d="M3798 1593C3798 1577.54 3810.54 1565 3826 1565L4262 1565C4277.46 1565 4290 1577.54 4290 1593L4290 1705C4290 1720.46 4277.46 1733 4262 1733L3826 1733C3810.54 1733 3798 1720.46 3798 1705Z" fill="#385723" fill-rule="evenodd" fill-opacity="0.588235"/></g></g></svg>