<svg width="3882" height="729" xmlns="http://www.w3.org/2000/svg" xmlns:xlink="http://www.w3.org/1999/xlink" xml:space="preserve" overflow="hidden"><g transform="translate(-444 -192)"><g><path d="M449 221C449 205.536 461.536 193 477 193L912 193C927.464 193 940 205.536 940 221L940 332.999C940 348.464 927.464 361 912 361L477 361C461.536 361 449 348.464 449 332.999Z" fill="#CF2CB9" fill-rule="evenodd" fill-opacity="1"/><path d="M966 221C966 205.536 978.536 193 994 193L1429 193C1444.46 193 1457 205.536 1457 221L1457 332.999C1457 348.464 1444.46 361 1429 361L994 361C978.536 361 966 348.464 966 332.999Z" fill="#203864" fill-rule="evenodd" fill-opacity="1"/><path d="M1484 221C1484 205.536 1496.54 193 1512 193L1947 193C1962.46 193 1975 205.536 1975 221L1975 332.999C1975 348.464 1962.46 361 1947 361L1512 361C1496.54 361 1484 348.464 1484 332.999Z" fill="#203864" fill-rule="evenodd" fill-opacity="1"/><path d="M449 407.001C449 391.536 461.536 379 477 379L912 379C927.464 379 940 391.536 940 407.001L940 519C940 534.464 927.464 547 912 547L477 547C461.536 547 449 534.464 449 519Z" fill="#CF2CB9" fill-rule="evenodd" fill-opacity="0.588235"/><text fill="#FFFFFF" fill-opacity="1" font-family="Cambria Math,Cambria Math_MSFontService,sans-serif" font-style="normal" font-variant="normal" font-weight="400" font-stretch="normal" font-size="83" text-anchor="start" direction="ltr" writing-mode="lr-tb" unicode-bidi="normal" text-decoration="none" transform="matrix(1 0 0 1 644.786 490)">洧논</text><text fill="#FFFFFF" fill-opacity="1" font-family="Cambria Math,Cambria Math_MSFontService,sans-serif" font-style="normal" font-variant="normal" font-weight="400" font-stretch="normal" font-size="61" text-anchor="start" direction="ltr" writing-mode="lr-tb" unicode-bidi="normal" text-decoration="none" transform="matrix(1 0 0 1 686.197 507)">1</text><path d="M966 407.001C966 391.536 978.536 379 994 379L1429 379C1444.46 379 1457 391.536 1457 407.001L1457 519C1457 534.464 1444.46 547 1429 547L994 547C978.536 547 966 534.464 966 519Z" fill="#203864" fill-rule="evenodd" fill-opacity="0.588235"/><path d="M1484 407.001C1484 391.536 1496.54 379 1512 379L1947 379C1962.46 379 1975 391.536 1975 407.001L1975 519C1975 534.464 1962.46 547 1947 547L1512 547C1496.54 547 1484 534.464 1484 519Z" fill="#203864" fill-rule="evenodd" fill-opacity="0.588235"/><path d="M449 592.001C449 576.536 461.536 564 477 564L912 564C927.464 564 940 576.536 940 592.001L940 704C940 719.464 927.464 732 912 732L477 732C461.536 732 449 719.464 449 704Z" fill="#CF2CB9" fill-rule="evenodd" fill-opacity="0.588235"/><text fill="#FFFFFF" fill-opacity="1" font-family="Cambria Math,Cambria Math_MSFontService,sans-serif" font-style="normal" font-variant="normal" font-weight="400" font-stretch="normal" font-size="83" text-anchor="start" direction="ltr" writing-mode="lr-tb" unicode-bidi="normal" text-decoration="none" transform="matrix(1 0 0 1 643.835 676)">洧논</text><text fill="#FFFFFF" fill-opacity="1" font-family="Cambria Math,Cambria Math_MSFontService,sans-serif" font-style="normal" font-variant="normal" font-weight="400" font-stretch="normal" font-size="61" text-anchor="start" direction="ltr" writing-mode="lr-tb" unicode-bidi="normal" text-decoration="none" transform="matrix(1 0 0 1 687.148 693)">2</text><path d="M966 592.001C966 576.536 978.536 564 994 564L1429 564C1444.46 564 1457 576.536 1457 592.001L1457 704C1457 719.464 1444.46 732 1429 732L994 732C978.536 732 966 719.464 966 704Z" fill="#203864" fill-rule="evenodd" fill-opacity="0.588235"/><path d="M1484 592.001C1484 576.536 1496.54 564 1512 564L1947 564C1962.46 564 1975 576.536 1975 592.001L1975 704C1975 719.464 1962.46 732 1947 732L1512 732C1496.54 732 1484 719.464 1484 704Z" fill="#203864" fill-rule="evenodd" fill-opacity="0.588235"/><path d="M449 778.001C449 762.536 461.536 750 477 750L912 750C927.464 750 940 762.536 940 778.001L940 890C940 905.464 927.464 918 912 918L477 918C461.536 918 449 905.464 449 890Z" fill="#CF2CB9" fill-rule="evenodd" fill-opacity="0.588235"/><text fill="#FFFFFF" fill-opacity="1" font-family="Cambria Math,Cambria Math_MSFontService,sans-serif" font-style="normal" font-variant="normal" font-weight="400" font-stretch="normal" font-size="83" text-anchor="start" direction="ltr" writing-mode="lr-tb" unicode-bidi="normal" text-decoration="none" transform="matrix(1 0 0 1 643.835 861)">洧논</text><text fill="#FFFFFF" fill-opacity="1" font-family="Cambria Math,Cambria Math_MSFontService,sans-serif" font-style="normal" font-variant="normal" font-weight="400" font-stretch="normal" font-size="61" text-anchor="start" direction="ltr" writing-mode="lr-tb" unicode-bidi="normal" text-decoration="none" transform="matrix(1 0 0 1 687.148 878)">3</text><path d="M966 778.001C966 762.536 978.536 750 994 750L1429 750C1444.46 750 1457 762.536 1457 778.001L1457 890C1457 905.464 1444.46 918 1429 918L994 918C978.536 918 966 905.464 966 890Z" fill="#203864" fill-rule="evenodd" fill-opacity="0.588235"/><path d="M1484 778.001C1484 762.536 1496.54 750 1512 750L1947 750C1962.46 750 1975 762.536 1975 778.001L1975 890C1975 905.464 1962.46 918 1947 918L1512 918C1496.54 918 1484 905.464 1484 890Z" fill="#203864" fill-rule="evenodd" fill-opacity="0.588235"/><path d="M2236 468.75 2419.5 468.75 2419.5 411 2535 526.5 2419.5 642 2419.5 584.25 2236 584.25Z" fill="#000000" fill-rule="evenodd" fill-opacity="1"/><path d="M2796 221C2796 205.536 2808.54 193 2824 193L3259 193C3274.46 193 3287 205.536 3287 221L3287 332.999C3287 348.464 3274.46 361 3259 361L2824 361C2808.54 361 2796 348.464 2796 332.999Z" fill="#CF2CB9" fill-rule="evenodd" fill-opacity="1"/><path d="M3314 221C3314 205.536 3326.54 193 3342 193L3777 193C3792.46 193 3805 205.536 3805 221L3805 332.999C3805 348.464 3792.46 361 3777 361L3342 361C3326.54 361 3314 348.464 3314 332.999Z" fill="#203864" fill-rule="evenodd" fill-opacity="1"/><path d="M3831 221C3831 205.536 3843.54 193 3859 193L4295 193C4310.46 193 4323 205.536 4323 221L4323 332.999C4323 348.463 4310.46 360.999 4295 360.999L3859 360.999C3843.54 360.999 3831 348.463 3831 332.999Z" fill="#203864" fill-rule="evenodd" fill-opacity="1"/><path d="M2796 407.001C2796 391.536 2808.54 379 2824 379L3259 379C3274.46 379 3287 391.536 3287 407.001L3287 519C3287 534.464 3274.46 547 3259 547L2824 547C2808.54 547 2796 534.464 2796 519Z" fill="#CF2CB9" fill-rule="evenodd" fill-opacity="0.588235"/><text fill="#FFFFFF" fill-opacity="1" font-family="Cambria Math,Cambria Math_MSFontService,sans-serif" font-style="normal" font-variant="normal" font-weight="400" font-stretch="normal" font-size="83" text-anchor="start" direction="ltr" writing-mode="lr-tb" unicode-bidi="normal" text-decoration="none" transform="matrix(1 0 0 1 2934.01 490)">洧녭</text><text fill="#FFFFFF" fill-opacity="1" font-family="Cambria Math,Cambria Math_MSFontService,sans-serif" font-style="normal" font-variant="normal" font-weight="400" font-stretch="normal" font-size="83" text-anchor="start" direction="ltr" writing-mode="lr-tb" unicode-bidi="normal" text-decoration="none" transform="matrix(1 0 0 1 2981.67 490)">(</text><text fill="#FFFFFF" fill-opacity="1" font-family="Cambria Math,Cambria Math_MSFontService,sans-serif" font-style="normal" font-variant="normal" font-weight="400" font-stretch="normal" font-size="83" text-anchor="start" direction="ltr" writing-mode="lr-tb" unicode-bidi="normal" text-decoration="none" transform="matrix(1 0 0 1 3016.05 490)">洧논</text><text fill="#FFFFFF" fill-opacity="1" font-family="Cambria Math,Cambria Math_MSFontService,sans-serif" font-style="normal" font-variant="normal" font-weight="400" font-stretch="normal" font-size="61" text-anchor="start" direction="ltr" writing-mode="lr-tb" unicode-bidi="normal" text-decoration="none" transform="matrix(1 0 0 1 3057.46 507)">1</text><text fill="#FFFFFF" fill-opacity="1" font-family="Cambria Math,Cambria Math_MSFontService,sans-serif" font-style="normal" font-variant="normal" font-weight="400" font-stretch="normal" font-size="83" text-anchor="start" direction="ltr" writing-mode="lr-tb" unicode-bidi="normal" text-decoration="none" transform="matrix(1 0 0 1 3095.82 490)">)</text><path d="M3314 407.001C3314 391.536 3326.54 379 3342 379L3777 379C3792.46 379 3805 391.536 3805 407.001L3805 519C3805 534.464 3792.46 547 3777 547L3342 547C3326.54 547 3314 534.464 3314 519Z" fill="#203864" fill-rule="evenodd" fill-opacity="0.588235"/><path d="M3831 407.001C3831 391.536 3843.54 379 3859 379L4295 379C4310.46 379 4323 391.536 4323 407.001L4323 518.999C4323 534.464 4310.46 547 4295 547L3859 547C3843.54 547 3831 534.464 3831 518.999Z" fill="#203864" fill-rule="evenodd" fill-opacity="0.588235"/><path d="M2796 592.001C2796 576.536 2808.54 564 2824 564L3259 564C3274.46 564 3287 576.536 3287 592.001L3287 704C3287 719.464 3274.46 732 3259 732L2824 732C2808.54 732 2796 719.464 2796 704Z" fill="#CF2CB9" fill-rule="evenodd" fill-opacity="0.588235"/><text fill="#FFFFFF" fill-opacity="1" font-family="Cambria Math,Cambria Math_MSFontService,sans-serif" font-style="normal" font-variant="normal" font-weight="400" font-stretch="normal" font-size="83" text-anchor="start" direction="ltr" writing-mode="lr-tb" unicode-bidi="normal" text-decoration="none" transform="matrix(1 0 0 1 2933.06 676)">洧녭</text><text fill="#FFFFFF" fill-opacity="1" font-family="Cambria Math,Cambria Math_MSFontService,sans-serif" font-style="normal" font-variant="normal" font-weight="400" font-stretch="normal" font-size="83" text-anchor="start" direction="ltr" writing-mode="lr-tb" unicode-bidi="normal" text-decoration="none" transform="matrix(1 0 0 1 2980.72 676)">(</text><text fill="#FFFFFF" fill-opacity="1" font-family="Cambria Math,Cambria Math_MSFontService,sans-serif" font-style="normal" font-variant="normal" font-weight="400" font-stretch="normal" font-size="83" text-anchor="start" direction="ltr" writing-mode="lr-tb" unicode-bidi="normal" text-decoration="none" transform="matrix(1 0 0 1 3015.1 676)">洧논</text><text fill="#FFFFFF" fill-opacity="1" font-family="Cambria Math,Cambria Math_MSFontService,sans-serif" font-style="normal" font-variant="normal" font-weight="400" font-stretch="normal" font-size="61" text-anchor="start" direction="ltr" writing-mode="lr-tb" unicode-bidi="normal" text-decoration="none" transform="matrix(1 0 0 1 3058.41 693)">2</text><text fill="#FFFFFF" fill-opacity="1" font-family="Cambria Math,Cambria Math_MSFontService,sans-serif" font-style="normal" font-variant="normal" font-weight="400" font-stretch="normal" font-size="83" text-anchor="start" direction="ltr" writing-mode="lr-tb" unicode-bidi="normal" text-decoration="none" transform="matrix(1 0 0 1 3096.77 676)">)</text><path d="M3314 592.001C3314 576.536 3326.54 564 3342 564L3777 564C3792.46 564 3805 576.536 3805 592.001L3805 704C3805 719.464 3792.46 732 3777 732L3342 732C3326.54 732 3314 719.464 3314 704Z" fill="#203864" fill-rule="evenodd" fill-opacity="0.588235"/><path d="M3831 592.001C3831 576.536 3843.54 564 3859 564L4295 564C4310.46 564 4323 576.536 4323 592.001L4323 703.999C4323 719.464 4310.46 732 4295 732L3859 732C3843.54 732 3831 719.464 3831 703.999Z" fill="#203864" fill-rule="evenodd" fill-opacity="0.588235"/><path d="M2796 778.001C2796 762.536 2808.54 750 2824 750L3259 750C3274.46 750 3287 762.536 3287 778.001L3287 890C3287 905.464 3274.46 918 3259 918L2824 918C2808.54 918 2796 905.464 2796 890Z" fill="#CF2CB9" fill-rule="evenodd" fill-opacity="0.588235"/><text fill="#FFFFFF" fill-opacity="1" font-family="Cambria Math,Cambria Math_MSFontService,sans-serif" font-style="normal" font-variant="normal" font-weight="400" font-stretch="normal" font-size="83" text-anchor="start" direction="ltr" writing-mode="lr-tb" unicode-bidi="normal" text-decoration="none" transform="matrix(1 0 0 1 2933.06 861)">洧녭</text><text fill="#FFFFFF" fill-opacity="1" font-family="Cambria Math,Cambria Math_MSFontService,sans-serif" font-style="normal" font-variant="normal" font-weight="400" font-stretch="normal" font-size="83" text-anchor="start" direction="ltr" writing-mode="lr-tb" unicode-bidi="normal" text-decoration="none" transform="matrix(1 0 0 1 2980.72 861)">(</text><text fill="#FFFFFF" fill-opacity="1" font-family="Cambria Math,Cambria Math_MSFontService,sans-serif" font-style="normal" font-variant="normal" font-weight="400" font-stretch="normal" font-size="83" text-anchor="start" direction="ltr" writing-mode="lr-tb" unicode-bidi="normal" text-decoration="none" transform="matrix(1 0 0 1 3015.1 861)">洧논</text><text fill="#FFFFFF" fill-opacity="1" font-family="Cambria Math,Cambria Math_MSFontService,sans-serif" font-style="normal" font-variant="normal" font-weight="400" font-stretch="normal" font-size="61" text-anchor="start" direction="ltr" writing-mode="lr-tb" unicode-bidi="normal" text-decoration="none" transform="matrix(1 0 0 1 3058.41 878)">3</text><text fill="#FFFFFF" fill-opacity="1" font-family="Cambria Math,Cambria Math_MSFontService,sans-serif" font-style="normal" font-variant="normal" font-weight="400" font-stretch="normal" font-size="83" text-anchor="start" direction="ltr" writing-mode="lr-tb" unicode-bidi="normal" text-decoration="none" transform="matrix(1 0 0 1 3096.77 861)">)</text><path d="M3314 778.001C3314 762.536 3326.54 750 3342 750L3777 750C3792.46 750 3805 762.536 3805 778.001L3805 890C3805 905.464 3792.46 918 3777 918L3342 918C3326.54 918 3314 905.464 3314 890Z" fill="#203864" fill-rule="evenodd" fill-opacity="0.588235"/><path d="M3831 778.001C3831 762.536 3843.54 750 3859 750L4295 750C4310.46 750 4323 762.536 4323 778.001L4323 889.999C4323 905.463 4310.46 918 4295 918L3859 918C3843.54 918 3831 905.463 3831 889.999Z" fill="#203864" fill-rule="evenodd" fill-opacity="0.588235"/></g></g></svg>